<?xml version="1.0" encoding="UTF-8" standalone="no"?>
<svg
   xmlns:dc="http://purl.org/dc/elements/1.1/"
   xmlns:cc="http://creativecommons.org/ns#"
   xmlns:rdf="http://www.w3.org/1999/02/22-rdf-syntax-ns#"
   xmlns:svg="http://www.w3.org/2000/svg"
   xmlns="http://www.w3.org/2000/svg"
   xmlns:sodipodi="http://sodipodi.sourceforge.net/DTD/sodipodi-0.dtd"
   xmlns:inkscape="http://www.inkscape.org/namespaces/inkscape"
   width="1000"
   height="1250"
   viewBox="0 0 264.58333 330.72918"
   version="1.1"
   id="svg8"
   sodipodi:docname="ionic_logo.svg"
   inkscape:version="1.0 (b51213c273, 2020-08-10)">
  <sodipodi:namedview
     pagecolor="#000000"
     bordercolor="#666666"
     borderopacity="1"
     objecttolerance="10"
     gridtolerance="10"
     guidetolerance="10"
     inkscape:pageopacity="0"
     inkscape:pageshadow="2"
     inkscape:window-width="1312"
     inkscape:window-height="704"
     id="namedview171"
     showgrid="false"
     inkscape:zoom="0.30323208"
     inkscape:cx="718.43304"
     inkscape:cy="444.52011"
     inkscape:window-x="54"
     inkscape:window-y="27"
     inkscape:window-maximized="1"
     inkscape:current-layer="text181"
     inkscape:document-rotation="0" />
  <defs
     id="defs2">
    <rect
       x="8.4148053"
       y="276.84857"
       width="41.421765"
       height="13.793297"
       id="rect183" />
    <clipPath
       clipPathUnits="userSpaceOnUse"
       id="clipPath3059">
      <path
         d="m 1496.74,6274.48 c -34.79,-34.79 -78.52,-55.13 -123.75,-61.04 -63.85,-8.35 -130.71,12 -179.75,61.04 -49.29,49.29 -69.61,116.56 -60.92,180.7 -45.22,-5.91 -88.89,-26.26 -123.65,-61.01 -23.752,-23.76 -40.725,-51.67 -51.037,-81.43 0.902,-12.6 2.625,-25.19 5.156,-37.6 13.879,-68.33 -7.504,-139.09 -56.793,-188.38 l -98.019,-98.02 c -35.411,-35.41 -82.922,-55.36 -132.93,-58.48 -39.699,-2.44 -78.641,-19.25 -108.43,-50.42 -62.012,-64.88 -60.793,-165.88 2.656,-229.32 64.079,-64.08 167.969,-64.08 232.047,0 29.348,29.35 45.258,67.07 47.696,105.52 3.218,50.98 24.441,99.14 60.574,135.27 l 95.93,95.93 c 49.29,49.29 119.96,70.7 188.25,56.79 11.63,-2.37 23.35,-4.03 35.1,-4.97 20.76,-1.69 41.64,-1.25 62.3,1.41 3.28,0.4 6.56,0.87 9.81,1.43 2.59,0.41 5.12,0.88 7.69,1.38 2.37,0.44 4.72,0.9 7.03,1.41 2.09,0.47 4.25,0.93 6.35,1.47 2.56,0.62 5.12,1.25 7.69,1.94 48.38,13.06 94.11,38.59 132.08,76.57 63.42,63.42 92.05,148.44 85.93,231.39 -10.26,-29.82 -27.23,-57.79 -51.01,-81.58 z"
         id="path3057" />
    </clipPath>
    <linearGradient
       x1="0"
       y1="0"
       x2="1"
       y2="0"
       gradientUnits="userSpaceOnUse"
       gradientTransform="matrix(-800.966,-800.966,-800.966,800.966,1429.9,6454.07)"
       spreadMethod="pad"
       id="linearGradient3065">
      <stop
         style="stop-opacity:1;stop-color:#7eca2d"
         offset="0"
         id="stop3061" />
      <stop
         style="stop-opacity:1;stop-color:#3a72c0"
         offset="1"
         id="stop3063" />
    </linearGradient>
    <clipPath
       clipPathUnits="userSpaceOnUse"
       id="clipPath3075">
      <path
         d="m 1706.81,7020.79 c -31.19,-29.76 -48.01,-68.77 -50.48,-108.43 -3.09,-50.04 -23.04,-97.49 -58.48,-132.94 l -98.02,-98.01 c -49.29,-49.3 -120.02,-70.64 -188.35,-56.77 -95.55,19.42 -198.79,-8.56 -272.02,-84.04 -61.136,-62.95 -88.737,-147.31 -82.425,-229.58 l 0.598,1.72 c 10.312,29.76 27.285,57.67 51.037,81.43 34.76,34.75 78.43,55.1 123.65,61.01 63.83,8.37 130.75,-11.98 179.79,-61.02 49.32,-49.32 69.6,-116.62 60.88,-180.72 45.23,5.91 88.96,26.25 123.75,61.04 23.78,23.79 40.75,51.76 51.01,81.58 -0.91,12.6 -2.63,25.13 -5.16,37.54 -13.91,68.29 7.53,139 56.79,188.26 l 95.96,95.95 c 36.1,36.1 84.27,57.33 135.21,60.57 38.45,2.45 76.17,18.35 105.55,47.73 64.05,64.05 64.08,167.98 0.04,232.02 -63.46,63.45 -164.47,64.64 -229.33,2.66 z"
         id="path3073" />
    </clipPath>
    <linearGradient
       x1="0"
       y1="0"
       x2="1"
       y2="0"
       gradientUnits="userSpaceOnUse"
       gradientTransform="matrix(1208.05,1208.05,1208.05,-1208.05,1197.21,6336.68)"
       spreadMethod="pad"
       id="linearGradient3083">
      <stop
         style="stop-opacity:1;stop-color:#f7a42d"
         offset="0"
         id="stop3077" />
      <stop
         style="stop-opacity:1;stop-color:#aa35a1"
         offset="0.521505"
         id="stop3079" />
      <stop
         style="stop-opacity:1;stop-color:#891d8b"
         offset="1"
         id="stop3081" />
    </linearGradient>
    <clipPath
       clipPathUnits="userSpaceOnUse"
       id="clipPath3093">
      <path
         d="m 5030.02,6997.13 c -46.52,-83.02 -33.69,-181.88 22.95,-249.83 51.59,-61.89 84.62,-137.11 91.78,-217.36 0.96,-10.7 1.67,-20.65 2.04,-29.32 5.15,-120.85 25.37,-251.4 60.1,-388.01 16.99,-66.83 35.67,-128.26 53.74,-182.04 5.44,-16.2 -0.19,-34 -13.91,-44.2 l -0.51,-0.38 c -16,-11.97 -38.22,-10.99 -53.26,2.17 -211.86,185.49 -317.59,392.26 -370.23,547.71 -19.41,57.31 -32.94,111.16 -42.35,159.37 -4.81,24.67 4.85,50.03 25.11,64.92 42.24,31.05 67.16,83.47 60.07,139.84 -9.69,77.07 -78.11,134.62 -155.7,130.99 -85.5,-4 -149.82,-78.1 -142.63,-162.6 1.39,-16.33 5.35,-31.83 11.45,-46.13 8.99,-21.07 5.25,-45.44 -8.73,-63.58 l -60.6,-78.68 c -22.12,-28.72 -56.16,-44.92 -92.38,-46.38 -36.03,-1.45 -71.1,-19.76 -92.5,-53.26 -30.1,-47.16 -21.23,-110.31 20.63,-147.42 50.38,-44.66 127.11,-36.71 167.49,15.71 22.16,28.77 28.57,64.71 20.58,97.45 -8.43,34.54 0.49,71.05 22.19,99.21 l 53.21,69.09 c 15.63,20.3 42.07,29.59 66.7,22.51 l 0.83,-0.24 c 24.01,-6.75 42.42,-26.05 47.19,-50.53 9.77,-50.14 23.83,-106.21 44,-166.18 44.41,-132.02 109.41,-255.48 193.2,-366.96 59.28,-78.86 128.1,-151.78 205.75,-218.15 12.68,-10.84 18.03,-28.11 13.19,-44.06 -7.95,-26.22 -10.21,-54.6 -5.56,-83.49 16.16,-100.37 111.93,-169.96 212.38,-154.33 101.75,15.83 171.29,111.22 155.27,212.89 -14.54,92.37 -94.69,158.11 -185.49,157.21 -16.88,-0.17 -31.93,10.55 -37.48,26.49 -14.77,42.45 -41.96,122.73 -55.81,177.25 -26.76,105.22 -51.37,234.34 -57.74,369.2 -3.85,81.46 40.27,158.53 113.74,193.94 42.44,20.46 78.69,54.58 101.43,99.95 56.22,112.17 7.96,249.4 -107.96,300.98 -103.52,46.05 -226.8,5.09 -282.18,-93.75 z"
         id="path3091" />
    </clipPath>
    <linearGradient
       x1="0"
       y1="0"
       x2="1"
       y2="0"
       gradientUnits="userSpaceOnUse"
       gradientTransform="matrix(2138.83,-1922.78,-1922.78,-2138.83,4517.72,6998.76)"
       spreadMethod="pad"
       id="linearGradient3101">
      <stop
         style="stop-opacity:1;stop-color:#f7a42d"
         offset="0"
         id="stop3095" />
      <stop
         style="stop-opacity:1;stop-color:#aa35a1"
         offset="0.521505"
         id="stop3097" />
      <stop
         style="stop-opacity:1;stop-color:#891d8b"
         offset="1"
         id="stop3099" />
    </linearGradient>
    <clipPath
       clipPathUnits="userSpaceOnUse"
       id="clipPath3111">
      <path
         d="m 9236.57,6456.6 c -34.67,4.42 -66.62,-7.58 -89.19,-29.29 -31.88,-30.67 -73.54,-49.11 -117.79,-49.11 h -130.83 c -50.06,0 -97.15,26.02 -121.8,69.58 -16.77,29.64 -40.69,54.69 -69.43,72.82 -50.84,32.09 -82.76,86.98 -82.76,147.1 v 92.89 c 0,38.04 16.9,73.63 44.88,99.41 24.05,22.13 37.81,55.27 33.32,91.43 -5.95,47.98 -44.89,86.32 -92.95,91.62 -63.86,7.05 -117.91,-42.75 -117.91,-105.18 0,-29.81 12.33,-56.74 32.16,-75.98 26.6,-25.79 42.76,-60.44 42.76,-97.5 v -99.24 c 0,-59.3 -31.05,-113.61 -80.79,-145.89 -24.08,-15.62 -44.68,-36.15 -60.39,-60.17 -33.48,-51.18 -91.54,-80.89 -152.7,-80.89 h -71.19 c -45.56,0 -88.15,20.5 -118.54,54.45 -23.88,26.67 -59.05,43.02 -98.01,41.52 -63.38,-2.45 -115.69,-53.35 -119.72,-116.65 -4.63,-72.71 52.96,-133.12 124.67,-133.12 37.06,0 70.34,16.15 93.21,41.79 30.89,34.64 75.21,54.28 121.62,54.28 h 64.64 c 62.2,0 121.12,-30.76 154.34,-83.36 15.19,-24.04 35.22,-44.71 58.73,-60.64 52.92,-35.85 84.13,-96.04 84.13,-159.96 v -34.94 c 0,-58.16 -23.24,-113.17 -62.08,-156.45 -21.01,-23.42 -33.3,-54.8 -31.79,-89.07 2.79,-63.08 53.57,-114.96 116.59,-118.99 72.72,-4.65 133.15,52.95 133.15,124.66 0,34.17 -13.72,65.13 -35.95,87.67 -40.94,41.52 -62.18,98.58 -62.18,156.88 v 27.5 c 0,64.81 32.1,125.68 86.2,161.37 28.19,18.6 51.52,43.95 67.69,73.76 24.24,44.67 71.95,71.57 122.78,71.57 h 128.11 c 43.2,0 85.39,-16.16 115.67,-46.97 19.61,-19.96 46.91,-32.34 77.12,-32.34 63.8,0 114.7,55.25 107.48,120.51 -5.42,48.97 -44.38,88.7 -93.25,94.93 z"
         id="path3109" />
    </clipPath>
    <linearGradient
       x1="0"
       y1="0"
       x2="1"
       y2="0"
       gradientUnits="userSpaceOnUse"
       gradientTransform="matrix(1e-7,-1954.99,-1954.99,-1e-7,8597.97,7200.44)"
       spreadMethod="pad"
       id="linearGradient3119">
      <stop
         style="stop-opacity:1;stop-color:#61caf4"
         offset="0"
         id="stop3113" />
      <stop
         style="stop-opacity:1;stop-color:#3974be"
         offset="0.539326"
         id="stop3115" />
      <stop
         style="stop-opacity:1;stop-color:#2c3f92"
         offset="1"
         id="stop3117" />
    </linearGradient>
    <clipPath
       clipPathUnits="userSpaceOnUse"
       id="clipPath3129">
      <path
         d="m 8973.26,6586.98 c 0,-46.69 -37.86,-84.54 -84.55,-84.54 -46.69,0 -84.54,37.85 -84.54,84.54 0,46.69 37.85,84.54 84.54,84.54 46.69,0 84.55,-37.85 84.55,-84.54 z"
         id="path3127" />
    </clipPath>
    <linearGradient
       x1="0"
       y1="0"
       x2="1"
       y2="0"
       gradientUnits="userSpaceOnUse"
       gradientTransform="matrix(1e-7,-1954.99,-1954.99,-1e-7,8888.71,7200.44)"
       spreadMethod="pad"
       id="linearGradient3137">
      <stop
         style="stop-opacity:1;stop-color:#61caf4"
         offset="0"
         id="stop3131" />
      <stop
         style="stop-opacity:1;stop-color:#3974be"
         offset="0.539326"
         id="stop3133" />
      <stop
         style="stop-opacity:1;stop-color:#2c3f92"
         offset="1"
         id="stop3135" />
    </linearGradient>
    <clipPath
       clipPathUnits="userSpaceOnUse"
       id="clipPath3147">
      <path
         d="m 8391.76,6586.98 c 0,-46.69 -37.85,-84.54 -84.54,-84.54 -46.69,0 -84.54,37.85 -84.54,84.54 0,46.69 37.85,84.54 84.54,84.54 46.69,0 84.54,-37.85 84.54,-84.54 z"
         id="path3145" />
    </clipPath>
    <linearGradient
       x1="0"
       y1="0"
       x2="1"
       y2="0"
       gradientUnits="userSpaceOnUse"
       gradientTransform="matrix(1e-7,-1954.99,-1954.99,-1e-7,8307.22,7200.44)"
       spreadMethod="pad"
       id="linearGradient3155">
      <stop
         style="stop-opacity:1;stop-color:#61caf4"
         offset="0"
         id="stop3149" />
      <stop
         style="stop-opacity:1;stop-color:#3974be"
         offset="0.539326"
         id="stop3151" />
      <stop
         style="stop-opacity:1;stop-color:#2c3f92"
         offset="1"
         id="stop3153" />
    </linearGradient>
    <clipPath
       clipPathUnits="userSpaceOnUse"
       id="clipPath3165">
      <path
         d="m 8973.26,6073.54 c 0,-46.7 -37.86,-84.55 -84.55,-84.55 -46.69,0 -84.54,37.85 -84.54,84.55 0,46.68 37.85,84.54 84.54,84.54 46.69,0 84.55,-37.86 84.55,-84.54 z"
         id="path3163" />
    </clipPath>
    <clipPath
       clipPathUnits="userSpaceOnUse"
       id="clipPath3183">
      <path
         d="m 8391.76,6073.54 c 0,-46.7 -37.85,-84.55 -84.54,-84.55 -46.69,0 -84.54,37.85 -84.54,84.55 0,46.68 37.85,84.54 84.54,84.54 46.69,0 84.54,-37.86 84.54,-84.54 z"
         id="path3181" />
    </clipPath>
    <clipPath
       clipPathUnits="userSpaceOnUse"
       id="clipPath3201">
      <path
         d="m 9405.44,4213.42 c -54.67,7.9 -107.51,-26.99 -121.81,-80.35 -8.62,-32.15 -2.17,-64.45 14.77,-89.8 17.52,-26.22 22.86,-58.76 16.2,-89.6 l -7.51,-34.78 c -3.14,-14.56 -22.88,-17.02 -29.49,-3.67 l -79.2,159.93 c -9.93,20.06 -10.54,43.21 -2.85,64.23 4.42,12.07 6.87,25.08 6.96,38.66 0.4,63.5 -51.3,115.53 -114.8,115.52 -63.38,-0.02 -114.76,-51.4 -114.76,-114.78 0,-17.15 3.77,-33.42 10.52,-48.02 9.3,-20.14 9.05,-43.39 0.25,-63.75 l -93.05,-215.35 c -4.68,-10.84 -17.6,-16.42 -28.68,-12.33 l -0.54,0.2 c -20.58,7.53 -34.3,27.07 -34.3,48.99 v 214.25 c 0,42.54 22.08,82.03 58.34,104.26 56.03,34.37 93.07,96.67 91.66,167.53 -2.04,102.65 -86.09,186.33 -188.75,187.95 -107.37,1.69 -194.96,-84.87 -194.96,-191.86 0,-68.83 36.27,-129.18 90.74,-163.02 36.47,-22.66 59.3,-61.93 59.3,-104.87 V 3888.5 c 0,-21.96 -13.78,-41.46 -34.38,-49.03 -85.27,-31.31 -145.89,-113.63 -144.84,-209.99 1.29,-118.38 97.34,-215.73 215.7,-218.54 124.54,-2.94 226.42,97.14 226.42,221.01 0,37.63 -9.41,73.05 -26.01,104.06 -16.73,31.28 -19.03,68.28 -4.96,100.84 l 92.58,214.25 c 3.38,7.83 11.09,12.9 19.62,12.9 h 0.12 c 2.46,0 5.8,0.04 9.15,0.09 8.27,0.11 15.88,-4.53 19.55,-11.94 l 190.14,-383.94 c 7.37,-14.88 29.39,-12.15 32.89,4.09 l 56.97,263.95 c 6.64,30.79 24.98,58.1 51.72,74.75 24.4,15.2 42.85,39.87 49.39,70.19 13.38,61.96 -28.27,123.01 -92.1,132.23 z"
         id="path3199" />
    </clipPath>
    <radialGradient
       fx="0"
       fy="0"
       cx="0"
       cy="0"
       r="1"
       gradientUnits="userSpaceOnUse"
       gradientTransform="matrix(1505.1,712.942,712.942,-1505.1,8693.48,3766.01)"
       spreadMethod="pad"
       id="radialGradient3207">
      <stop
         style="stop-opacity:1;stop-color:#7eca2d"
         offset="0"
         id="stop3203" />
      <stop
         style="stop-opacity:1;stop-color:#4a8333"
         offset="1"
         id="stop3205" />
    </radialGradient>
    <clipPath
       clipPathUnits="userSpaceOnUse"
       id="clipPath3217">
      <path
         d="m 7790.49,4112.64 c 54.68,-7.9 107.51,26.98 121.82,80.34 8.62,32.16 2.16,64.46 -14.78,89.8 -17.52,26.23 -22.85,58.77 -16.2,89.6 l 7.51,34.79 c 3.14,14.56 22.88,17.01 29.49,3.66 l 79.2,-159.92 c 9.93,-20.06 10.54,-43.21 2.85,-64.24 -4.42,-12.06 -6.87,-25.08 -6.96,-38.66 -0.4,-63.5 51.3,-115.52 114.8,-115.51 63.38,0.01 114.76,51.39 114.76,114.78 0,17.14 -3.77,33.41 -10.52,48.02 -9.3,20.13 -9.05,43.39 -0.25,63.74 l 93.05,215.35 c 4.69,10.84 17.6,16.43 28.68,12.34 l 0.54,-0.2 c 20.59,-7.53 34.31,-27.07 34.31,-49 v -214.25 c 0,-42.53 -22.09,-82.03 -58.34,-104.26 -56.04,-34.36 -93.08,-96.67 -91.67,-167.53 2.04,-102.65 86.09,-186.33 188.75,-187.95 107.37,-1.68 194.97,84.88 194.97,191.86 0,68.83 -36.28,129.18 -90.74,163.03 -36.48,22.66 -59.31,61.92 -59.31,104.86 v 214.27 c 0,21.95 13.78,41.45 34.38,49.02 85.27,31.32 145.9,113.63 144.84,210 -1.29,118.38 -97.34,215.73 -215.69,218.53 -124.55,2.95 -226.43,-97.13 -226.43,-221 0,-37.63 9.42,-73.06 26.01,-104.06 16.74,-31.28 19.03,-68.28 4.96,-100.85 l -92.57,-214.24 c -3.39,-7.83 -11.1,-12.9 -19.63,-12.91 h -0.12 c -2.46,0 -5.79,-0.03 -9.15,-0.08 -8.27,-0.12 -15.87,4.52 -19.55,11.94 l -190.13,383.93 c -7.38,14.89 -29.4,12.16 -32.9,-4.09 L 7799.5,4389.8 c -6.64,-30.79 -24.98,-58.09 -51.71,-74.75 -24.4,-15.2 -42.86,-39.87 -49.4,-70.19 -13.37,-61.95 28.27,-123 92.1,-132.22 z"
         id="path3215" />
    </clipPath>
    <linearGradient
       x1="0"
       y1="0"
       x2="1"
       y2="0"
       gradientUnits="userSpaceOnUse"
       gradientTransform="matrix(-2292.13,0,0,2292.13,8970.93,4339.35)"
       spreadMethod="pad"
       id="linearGradient3225">
      <stop
         style="stop-opacity:1;stop-color:#f7a42d"
         offset="0"
         id="stop3219" />
      <stop
         style="stop-opacity:1;stop-color:#aa35a1"
         offset="0.521505"
         id="stop3221" />
      <stop
         style="stop-opacity:1;stop-color:#891d8b"
         offset="1"
         id="stop3223" />
    </linearGradient>
    <clipPath
       clipPathUnits="userSpaceOnUse"
       id="clipPath3267">
      <path
         d="m 5039.05,2379.95 c -40.96,-73.11 -29.66,-160.15 20.21,-219.98 45.42,-54.49 74.5,-120.72 80.81,-191.38 0.84,-9.42 1.47,-18.17 1.79,-25.81 4.54,-106.41 22.34,-221.35 52.92,-341.64 14.96,-58.84 31.41,-112.93 47.32,-160.28 4.79,-14.26 -0.17,-29.94 -12.25,-38.91 l -0.45,-0.34 c -14.08,-10.54 -33.65,-9.68 -46.89,1.92 -186.54,163.31 -279.64,345.37 -325.99,482.24 -17.09,50.46 -29,97.87 -37.28,140.32 -4.24,21.72 4.27,44.05 22.11,57.16 37.18,27.34 59.13,73.49 52.89,123.13 -8.54,67.85 -68.78,118.53 -137.09,115.33 -75.29,-3.52 -131.92,-68.77 -125.59,-143.17 1.23,-14.38 4.72,-28.02 10.08,-40.61 7.92,-18.56 4.63,-40.01 -7.68,-55.99 l -53.36,-69.27 c -19.48,-25.29 -49.44,-39.55 -81.34,-40.83 -31.72,-1.28 -62.6,-17.4 -81.44,-46.9 -26.51,-41.52 -18.69,-97.13 18.17,-129.8 44.35,-39.32 111.91,-32.32 147.46,13.83 19.52,25.33 25.16,56.98 18.13,85.81 -7.43,30.41 0.43,62.55 19.53,87.35 l 46.85,60.83 c 13.77,17.87 37.04,26.05 58.73,19.82 l 0.73,-0.21 c 21.14,-5.95 37.35,-22.94 41.55,-44.49 8.6,-44.15 20.98,-93.52 38.74,-146.32 39.1,-116.24 96.33,-224.95 170.11,-323.1 52.19,-69.44 112.79,-133.64 181.16,-192.08 11.16,-9.54 15.87,-24.74 11.61,-38.8 -6.99,-23.08 -8.98,-48.07 -4.89,-73.5 14.23,-88.38 98.55,-149.65 187,-135.89 89.58,13.94 150.81,97.93 136.71,187.45 -12.81,81.33 -83.38,139.21 -163.33,138.41 -14.86,-0.14 -28.11,9.29 -32.99,23.33 -13.01,37.38 -36.95,108.07 -49.15,156.06 -23.55,92.64 -45.23,206.34 -50.83,325.08 -3.39,71.72 35.46,139.58 100.14,170.76 37.37,18.01 69.29,48.06 89.31,88.01 49.49,98.76 7.01,219.59 -95.06,265 -91.14,40.54 -199.69,4.48 -248.45,-82.54 z"
         id="path3265" />
    </clipPath>
    <linearGradient
       x1="0"
       y1="0"
       x2="1"
       y2="0"
       gradientUnits="userSpaceOnUse"
       gradientTransform="matrix(1883.19,-1692.97,-1692.97,-1883.19,4587.98,2381.38)"
       spreadMethod="pad"
       id="linearGradient3275">
      <stop
         style="stop-opacity:1;stop-color:#f7a42d"
         offset="0"
         id="stop3269" />
      <stop
         style="stop-opacity:1;stop-color:#aa35a1"
         offset="0.521505"
         id="stop3271" />
      <stop
         style="stop-opacity:1;stop-color:#891d8b"
         offset="1"
         id="stop3273" />
    </linearGradient>
    <clipPath
       clipPathUnits="userSpaceOnUse"
       id="clipPath3285">
      <path
         d="m 4438.54,1343.56 c 82.19,-16.35 161.47,21.3 202.95,87.23 37.78,60.05 91.77,108.17 157.02,136.02 8.7,3.71 16.83,7.02 23.99,9.69 99.8,37.21 203.6,89.68 308.54,155.95 51.33,32.42 97.69,64.79 137.8,94.55 12.08,8.97 28.52,9.1 40.79,0.39 l 0.46,-0.32 c 14.38,-10.14 19.61,-29.02 12.68,-45.19 -97.64,-227.89 -241.99,-372.71 -357.83,-459.12 -42.7,-31.84 -84.11,-57.83 -121.92,-78.83 -19.34,-10.76 -43.21,-9.56 -61.19,3.35 -37.5,26.91 -88.18,33.51 -133.45,12.23 -61.89,-29.1 -91.46,-102.05 -67.29,-166.03 26.62,-70.51 106.17,-104.199 174.97,-75.17 13.3,5.61 25.2,13.15 35.51,22.14 15.2,13.27 36.62,16.77 55.62,10 l 82.37,-29.32 c 30.08,-10.71 52.9,-34.798 63.99,-64.728 11.03,-29.773 35.9,-54.16 69.78,-62.953 47.68,-12.371 98.14,12.25 117.82,57.403 23.69,54.338 -3.86,116.428 -58.75,135.968 -30.12,10.72 -61.96,6.31 -87.2,-9.3 -26.63,-16.46 -59.62,-18.92 -89.11,-8.42 l -72.34,25.74 c -21.25,7.57 -36.23,27.18 -37,49.73 l -0.03,0.76 c -0.88,21.94 10.26,42.61 29.46,53.27 39.33,21.83 82.45,48.87 127.18,82.08 98.45,73.12 184.14,161.16 254.67,261.67 49.9,71.1 92.22,148.58 126.66,231.67 5.62,13.56 18.62,22.74 33.3,23.04 24.12,0.48 48.5,6.31 71.42,18.07 79.64,40.86 111.84,139.99 71.41,219.85 -40.95,80.88 -139.76,113.14 -220.53,72.06 -73.39,-37.33 -106.61,-122.34 -81.14,-198.12 4.74,-14.09 -0.14,-29.61 -11.97,-38.59 -31.53,-23.93 -91.36,-68.55 -133.23,-94.99 -80.82,-51.05 -182.24,-106.81 -293.43,-148.85 -67.16,-25.4 -143.71,-9.43 -193.35,42.44 -28.68,29.97 -67.13,51.04 -111.31,57.73 -109.23,16.53 -211,-61.24 -222.63,-172.34 -10.38,-99.22 57.48,-191.29 155.31,-210.76 z"
         id="path3283" />
    </clipPath>
    <linearGradient
       x1="0"
       y1="0"
       x2="1"
       y2="0"
       gradientUnits="userSpaceOnUse"
       gradientTransform="matrix(1027.78,2314.35,2314.35,-1027.78,4576.64,914.15)"
       spreadMethod="pad"
       id="linearGradient3293">
      <stop
         style="stop-opacity:1;stop-color:#61caf4"
         offset="0"
         id="stop3287" />
      <stop
         style="stop-opacity:1;stop-color:#3974be"
         offset="0.539326"
         id="stop3289" />
      <stop
         style="stop-opacity:1;stop-color:#2c3f92"
         offset="1"
         id="stop3291" />
    </linearGradient>
    <clipPath
       clipPathUnits="userSpaceOnUse"
       id="clipPath3303">
      <path
         d="m 1880.29,2099.66 c 20.32,8.01 39.37,20.22 55.8,36.65 64.04,64.04 64.07,167.97 0.03,232.02 -63.45,63.44 -164.47,64.63 -229.32,2.65 -31.2,-29.75 -48.01,-68.76 -50.48,-108.43 -3.1,-50.04 -23.04,-97.49 -58.48,-132.93 l -98.02,-98.02 c -49.29,-49.29 -120.03,-70.64 -188.35,-56.76 -95.55,19.41 -198.79,-8.57 -272.03,-84.05 -61.131,-62.95 -88.729,-147.31 -82.42,-229.57 l 0.597,1.71 c 10.313,29.76 27.285,57.68 51.043,81.43 34.75,34.76 78.42,55.1 123.65,61.01 63.82,8.38 130.74,-11.97 179.78,-61.01 49.32,-49.33 69.61,-116.62 60.89,-180.73 45.23,5.91 88.95,26.26 123.74,61.05 23.79,23.78 40.76,51.76 51.01,81.57 -0.9,12.6 -2.62,25.14 -5.16,37.54 -13.9,68.3 7.54,139 56.8,188.26 l 95.95,95.96 c 22.14,22.13 48.82,38.64 77.89,48.88 82.99,-109.14 133.68,-244.98 131.02,-392.21 -14.4,-797.7 -823.36,-752.551 -992.16,-671.3 102.23,-51.95 217.91,-81.251 340.44,-81.251 415.62,0 752.54,336.931 752.54,752.551 0,153.39 -45.94,296.02 -124.76,414.98 z"
         id="path3301" />
    </clipPath>
    <linearGradient
       x1="0"
       y1="0"
       x2="1"
       y2="0"
       gradientUnits="userSpaceOnUse"
       gradientTransform="matrix(-787.067,-787.067,-787.067,787.067,2047.12,2156.77)"
       spreadMethod="pad"
       id="linearGradient3311">
      <stop
         style="stop-opacity:1;stop-color:#f7a42d"
         offset="0"
         id="stop3305" />
      <stop
         style="stop-opacity:1;stop-color:#aa35a1"
         offset="0.521505"
         id="stop3307" />
      <stop
         style="stop-opacity:1;stop-color:#891d8b"
         offset="1"
         id="stop3309" />
    </linearGradient>
    <clipPath
       clipPathUnits="userSpaceOnUse"
       id="clipPath3321">
      <path
         d="m 1496.72,1624.68 c -34.79,-34.79 -78.51,-55.14 -123.74,-61.05 -63.86,-8.34 -130.71,12.01 -179.75,61.05 -49.3,49.29 -69.61,116.55 -60.92,180.69 -45.23,-5.91 -88.9,-26.25 -123.65,-61.01 -23.758,-23.75 -40.73,-51.67 -51.043,-81.43 0.906,-12.59 2.625,-25.19 5.156,-37.6 13.879,-68.32 -7.5,-139.08 -56.789,-188.38 l -98.023,-98.01 c -21.457,-21.46 -47.375,-37.2 -75.582,-47 -82.598,109.22 -131.606,245.25 -131.606,392.74 0,187.83 62.758,359.19 182.641,487.97 109.848,117.99 236.846,204.42 469.096,226.63 162.09,15.5 340.84,-43.51 340.84,-43.51 -102.33,52.08 -218.16,81.46 -340.84,81.46 -415.627,0 -752.557,-336.93 -752.557,-752.55 0,-153.55 46.047,-296.31 125.004,-415.34 -21.391,-8.44 -41.363,-21.53 -58.355,-39.3 -62.012,-64.89 -60.793,-165.87 2.66,-229.33 64.074,-64.069 167.968,-64.069 232.043,0 29.347,29.35 45.258,67.08 47.699,105.53 3.215,50.97 24.441,99.14 60.57,135.27 l 95.926,95.93 c 49.29,49.28 119.96,70.69 188.26,56.78 11.62,-2.37 23.35,-4.02 35.1,-4.96 20.75,-1.69 41.63,-1.25 62.29,1.4 3.28,0.41 6.56,0.88 9.82,1.44 2.59,0.4 5.12,0.87 7.68,1.38 2.38,0.43 4.73,0.9 7.04,1.4 2.09,0.47 4.25,0.94 6.34,1.47 2.57,0.63 5.13,1.25 7.69,1.94 48.38,13.06 94.11,38.6 132.09,76.58 63.42,63.42 92.05,148.43 85.92,231.38 -10.25,-29.81 -27.22,-57.79 -51.01,-81.57 z"
         id="path3319" />
    </clipPath>
    <linearGradient
       x1="0"
       y1="0"
       x2="1"
       y2="0"
       gradientUnits="userSpaceOnUse"
       gradientTransform="matrix(-564.779,-564.779,-564.779,564.779,1042.24,1796.98)"
       spreadMethod="pad"
       id="linearGradient3327">
      <stop
         style="stop-opacity:1;stop-color:#7eca2d"
         offset="0"
         id="stop3323" />
      <stop
         style="stop-opacity:1;stop-color:#3a72c0"
         offset="1"
         id="stop3325" />
    </linearGradient>
    <clipPath
       clipPathUnits="userSpaceOnUse"
       id="clipPath3337">
      <path
         d="m 8307.22,1331.55 c -46.69,0 -84.54,37.85 -84.54,84.55 0,46.69 37.85,84.54 84.54,84.54 46.69,0 84.54,-37.85 84.54,-84.54 0,-46.7 -37.85,-84.55 -84.54,-84.55 z m 165.94,-252.93 c -1.51,34.26 10.78,65.65 31.79,89.06 38.84,43.29 62.08,98.3 62.08,156.46 v 34.93 c 0,63.92 -31.2,124.11 -84.13,159.96 -23.51,15.93 -43.54,36.6 -58.73,60.65 -33.22,52.59 -92.14,83.35 -154.34,83.35 h -64.64 c -46.41,0 -90.73,-19.64 -121.62,-54.28 -22.87,-25.63 -56.15,-41.78 -93.21,-41.78 -5.17,0 -10.25,0.35 -15.25,0.95 43.37,-259.4 244.83,-465.23 501.99,-515.08 -2.18,8.31 -3.55,16.93 -3.94,25.78 z"
         id="path3335" />
    </clipPath>
    <radialGradient
       fx="0"
       fy="0"
       cx="0"
       cy="0"
       r="1"
       gradientUnits="userSpaceOnUse"
       gradientTransform="matrix(216.043,979.395,979.395,-216.043,8302.71,847.51)"
       spreadMethod="pad"
       id="radialGradient3343">
      <stop
         style="stop-opacity:1;stop-color:#ef9b13"
         offset="0"
         id="stop3339" />
      <stop
         style="stop-opacity:1;stop-color:#f04428"
         offset="1"
         id="stop3341" />
    </radialGradient>
    <clipPath
       clipPathUnits="userSpaceOnUse"
       id="clipPath3353">
      <path
         d="m 8888.71,2014.09 c 46.69,0 84.55,-37.85 84.55,-84.55 0,-46.69 -37.86,-84.54 -84.55,-84.54 -46.69,0 -84.54,37.85 -84.54,84.54 0,46.7 37.85,84.55 84.54,84.55 z m -185.74,279.9 c 4.49,-36.16 -9.27,-69.29 -33.32,-91.44 -27.98,-25.76 -44.88,-61.36 -44.88,-99.4 v -92.89 c 0,-60.12 31.92,-115.01 82.77,-147.1 28.72,-18.13 52.65,-43.18 69.42,-72.82 24.65,-43.56 71.74,-69.57 121.8,-69.57 h 130.83 c 44.24,0 85.91,18.43 117.79,49.11 18.19,17.49 42.48,28.66 69.37,30.03 -51.94,254.25 -256.67,452.83 -514.06,495.79 z"
         id="path3351" />
    </clipPath>
    <radialGradient
       fx="0"
       fy="0"
       cx="0"
       cy="0"
       r="1"
       gradientUnits="userSpaceOnUse"
       gradientTransform="matrix(-738.147,-1040.61,-1040.61,738.147,9188.48,2291.4)"
       spreadMethod="pad"
       id="radialGradient3359">
      <stop
         style="stop-opacity:1;stop-color:#7eca2d"
         offset="0"
         id="stop3355" />
      <stop
         style="stop-opacity:1;stop-color:#4a8333"
         offset="1"
         id="stop3357" />
    </radialGradient>
    <clipPath
       clipPathUnits="userSpaceOnUse"
       id="clipPath3369">
      <path
         d="m 8888.71,1331.55 c -46.69,0 -84.54,37.85 -84.54,84.55 0,46.69 37.85,84.54 84.54,84.54 46.69,0 84.55,-37.85 84.55,-84.54 0,-46.7 -37.86,-84.55 -84.55,-84.55 z m 333.63,252.17 c -30.21,0 -57.51,12.38 -77.12,32.34 -30.28,30.81 -72.47,46.97 -115.67,46.97 h -128.11 c -50.83,0 -98.54,-26.9 -122.78,-71.57 -16.17,-29.81 -39.5,-55.16 -67.69,-73.75 -54.1,-35.69 -86.2,-96.57 -86.2,-161.38 v -27.5 c 0,-58.3 21.24,-115.36 62.18,-156.88 22.23,-22.54 35.95,-53.5 35.95,-87.66 0,-10.86 -1.41,-21.39 -4.01,-31.43 262.34,50.87 466.7,264.07 504.37,530.89 z"
         id="path3367" />
    </clipPath>
    <linearGradient
       x1="0"
       y1="0"
       x2="1"
       y2="0"
       gradientUnits="userSpaceOnUse"
       gradientTransform="matrix(-820.963,802.96,802.96,820.963,9225.61,1069.35)"
       spreadMethod="pad"
       id="linearGradient3377">
      <stop
         style="stop-opacity:1;stop-color:#d553b0"
         offset="0"
         id="stop3371" />
      <stop
         style="stop-opacity:1;stop-color:#c50b8c"
         offset="0.5"
         id="stop3373" />
      <stop
         style="stop-opacity:1;stop-color:#99168d"
         offset="1"
         id="stop3375" />
    </linearGradient>
    <clipPath
       clipPathUnits="userSpaceOnUse"
       id="clipPath3387">
      <path
         d="m 8662.78,2284.2 c 0,-35.8 -29.02,-64.82 -64.81,-64.82 -35.8,0 -64.82,29.02 -64.82,64.82 0,35.79 29.02,64.81 64.82,64.81 35.79,0 64.81,-29.02 64.81,-64.81 z"
         id="path3385" />
    </clipPath>
    <radialGradient
       fx="0"
       fy="0"
       cx="0"
       cy="0"
       r="1"
       gradientUnits="userSpaceOnUse"
       gradientTransform="matrix(-738.147,-1040.61,-1040.61,738.147,9188.48,2291.4)"
       spreadMethod="pad"
       id="radialGradient3393">
      <stop
         style="stop-opacity:1;stop-color:#7eca2d"
         offset="0"
         id="stop3389" />
      <stop
         style="stop-opacity:1;stop-color:#4a8333"
         offset="1"
         id="stop3391" />
    </radialGradient>
    <clipPath
       clipPathUnits="userSpaceOnUse"
       id="clipPath3403">
      <path
         d="m 8673.63,1096.01 c 0,-41.79 -33.88,-75.66 -75.66,-75.66 -41.79,0 -75.66,33.87 -75.66,75.66 0,41.78 33.87,75.66 75.66,75.66 41.78,0 75.66,-33.88 75.66,-75.66 z"
         id="path3401" />
    </clipPath>
    <radialGradient
       fx="0"
       fy="0"
       cx="0"
       cy="0"
       r="1"
       gradientUnits="userSpaceOnUse"
       gradientTransform="matrix(216.043,979.395,979.395,-216.043,8302.71,847.51)"
       spreadMethod="pad"
       id="radialGradient3409">
      <stop
         style="stop-opacity:1;stop-color:#ef9b13"
         offset="0"
         id="stop3405" />
      <stop
         style="stop-opacity:1;stop-color:#f04428"
         offset="1"
         id="stop3407" />
    </radialGradient>
    <clipPath
       clipPathUnits="userSpaceOnUse"
       id="clipPath3419">
      <path
         d="m 9197.49,1619.86 c -35.8,0 -64.82,29.02 -64.82,64.82 0,35.79 29.02,64.81 64.82,64.81 35.79,0 64.81,-29.02 64.81,-64.81 0,-35.8 -29.02,-64.82 -64.81,-64.82 z"
         id="path3417" />
    </clipPath>
    <linearGradient
       x1="0"
       y1="0"
       x2="1"
       y2="0"
       gradientUnits="userSpaceOnUse"
       gradientTransform="matrix(802.96,820.963,820.963,-802.96,8289.78,756.63)"
       spreadMethod="pad"
       id="linearGradient3427">
      <stop
         style="stop-opacity:1;stop-color:#d553b0"
         offset="0"
         id="stop3421" />
      <stop
         style="stop-opacity:1;stop-color:#c50b8c"
         offset="0.5"
         id="stop3423" />
      <stop
         style="stop-opacity:1;stop-color:#99168d"
         offset="1"
         id="stop3425" />
    </linearGradient>
    <clipPath
       clipPathUnits="userSpaceOnUse"
       id="clipPath3437">
      <path
         d="m 8307.22,1845 c -46.69,0 -84.54,37.85 -84.54,84.54 0,46.7 37.85,84.55 84.54,84.55 46.69,0 84.54,-37.85 84.54,-84.55 0,-46.69 -37.85,-84.54 -84.54,-84.54 z m 217.05,359.46 c -19.83,19.23 -32.15,46.16 -32.15,75.97 0,5.19 0.4,10.28 1.12,15.27 -251.74,-42.01 -453.09,-232.9 -510.4,-479.13 l 2.57,0.16 c 38.96,1.5 74.13,-14.85 98.01,-41.52 30.39,-33.95 72.99,-54.44 118.54,-54.44 h 71.19 c 61.16,0 119.22,29.7 152.7,80.88 15.71,24.02 36.31,44.55 60.39,60.18 49.74,32.28 80.79,86.58 80.79,145.88 v 99.25 c 0,37.05 -16.16,71.71 -42.76,97.5 z"
         id="path3435" />
    </clipPath>
    <linearGradient
       x1="0"
       y1="0"
       x2="1"
       y2="0"
       gradientUnits="userSpaceOnUse"
       gradientTransform="matrix(691.338,-795.758,-795.758,-691.338,8133.92,2175.98)"
       spreadMethod="pad"
       id="linearGradient3445">
      <stop
         style="stop-opacity:1;stop-color:#61caf4"
         offset="0"
         id="stop3439" />
      <stop
         style="stop-opacity:1;stop-color:#3974be"
         offset="0.539326"
         id="stop3441" />
      <stop
         style="stop-opacity:1;stop-color:#2c3f92"
         offset="1"
         id="stop3443" />
    </linearGradient>
    <clipPath
       clipPathUnits="userSpaceOnUse"
       id="clipPath3455">
      <path
         d="m 8009.3,1760.34 c -41.79,0 -75.67,-33.88 -75.67,-75.66 0,-41.79 33.88,-75.66 75.67,-75.66 41.78,0 75.65,33.87 75.65,75.66 0,41.78 -33.87,75.66 -75.65,75.66 z"
         id="path3453" />
    </clipPath>
    <linearGradient
       x1="0"
       y1="0"
       x2="1"
       y2="0"
       gradientUnits="userSpaceOnUse"
       gradientTransform="matrix(691.338,-795.758,-795.758,-691.338,7819.66,1902.95)"
       spreadMethod="pad"
       id="linearGradient3463">
      <stop
         style="stop-opacity:1;stop-color:#61caf4"
         offset="0"
         id="stop3457" />
      <stop
         style="stop-opacity:1;stop-color:#3974be"
         offset="0.539326"
         id="stop3459" />
      <stop
         style="stop-opacity:1;stop-color:#2c3f92"
         offset="1"
         id="stop3461" />
    </linearGradient>
    <clipPath
       clipPathUnits="userSpaceOnUse"
       id="clipPath3946">
      <path
         d="m 0,11060 v 8940 h 9300 v -8940 z"
         id="path3944" />
    </clipPath>
    <clipPath
       clipPathUnits="userSpaceOnUse"
       id="clipPath3958">
      <path
         d="m 9270,11060 v 8940 h 9320 v -8940 z"
         id="path3956" />
    </clipPath>
    <clipPath
       clipPathUnits="userSpaceOnUse"
       id="clipPath3970">
      <path
         d="m 18560,0 v 20000 h 1440 V 0 Z"
         id="path3968" />
    </clipPath>
    <clipPath
       clipPathUnits="userSpaceOnUse"
       id="clipPath3982">
      <path
         d="m 0,2130 v 8960 H 9300 V 2130 Z"
         id="path3980" />
    </clipPath>
    <clipPath
       clipPathUnits="userSpaceOnUse"
       id="clipPath3994">
      <path
         d="m 9270,2130 h 9320 v 8960 H 9270 Z"
         id="path3992" />
    </clipPath>
    <clipPath
       clipPathUnits="userSpaceOnUse"
       id="clipPath4006">
      <path
         d="M 0,2160 H 18590 V 0 H 0 Z"
         id="path4004" />
    </clipPath>
    <clipPath
       clipPathUnits="userSpaceOnUse"
       id="clipPath4090">
      <path
         d="m 0,0 c 667.996,0 1336,0 2004,0 665.34,0 1330.67,0 1996,0 0,665.328 0,1330.66 0,1996 0,668 0,1336 0,2004 -665.33,0 -1330.66,0 -1996,0 -668,0 -1336.004,0 -2004,0 C 0,3332 0,2664 0,1996 0,1330.66 0,665.328 0,0"
         id="path4088" />
    </clipPath>
    <clipPath
       clipPathUnits="userSpaceOnUse"
       id="clipPath4166">
      <path
         d="m 2810.88,2123.62 c 0,-462.25 -374.74,-836.99 -836.99,-836.99 -462.26,0 -836.99,374.74 -836.99,836.99 0,462.26 374.73,836.99 836.99,836.99 462.25,0 836.99,-374.73 836.99,-836.99 z"
         id="path4164" />
    </clipPath>
    <radialGradient
       fx="0"
       fy="0"
       cx="0"
       cy="0"
       r="1"
       gradientUnits="userSpaceOnUse"
       gradientTransform="matrix(836.989,0,0,-836.989,1973.89,2123.62)"
       spreadMethod="pad"
       id="radialGradient4172">
      <stop
         style="stop-opacity:1;stop-color:#f6f6f6"
         offset="0"
         id="stop4168" />
      <stop
         style="stop-opacity:1;stop-color:#e8e8e7"
         offset="1"
         id="stop4170" />
    </radialGradient>
    <clipPath
       clipPathUnits="userSpaceOnUse"
       id="clipPath7845">
      <path
         d="m 0,0 c 667.996,0 1336,0 2004,0 665.34,0 1330.67,0 1996,0 0,665.328 0,1330.66 0,1996 0,668 0,1336 0,2004 -665.33,0 -1330.66,0 -1996,0 -668,0 -1336.004,0 -2004,0 C 0,3332 0,2664 0,1996 0,1330.66 0,665.328 0,0"
         id="path7843" />
    </clipPath>
    <clipPath
       clipPathUnits="userSpaceOnUse"
       id="clipPath7921">
      <path
         d="m 2810.88,2123.62 c 0,-462.25 -374.74,-836.99 -836.99,-836.99 -462.26,0 -836.99,374.74 -836.99,836.99 0,462.26 374.73,836.99 836.99,836.99 462.25,0 836.99,-374.73 836.99,-836.99 z"
         id="path7919" />
    </clipPath>
    <radialGradient
       fx="0"
       fy="0"
       cx="0"
       cy="0"
       r="1"
       gradientUnits="userSpaceOnUse"
       gradientTransform="matrix(836.989,0,0,-836.989,1973.89,2123.62)"
       spreadMethod="pad"
       id="radialGradient7927">
      <stop
         style="stop-opacity:1;stop-color:#f6f6f6"
         offset="0"
         id="stop7923" />
      <stop
         style="stop-opacity:1;stop-color:#e8e8e7"
         offset="1"
         id="stop7925" />
    </radialGradient>
    <filter
       x="-0.25"
       y="-0.25"
       width="1.5"
       height="1.5"
       style="color-interpolation-filters:sRGB"
       id="filter11618">
      <feGaussianBlur
         stdDeviation="1"
         result="result1"
         id="feGaussianBlur11596" />
      <feComposite
         in="result1"
         in2="result1"
         result="result4"
         operator="in"
         id="feComposite11598" />
      <feGaussianBlur
         stdDeviation="7"
         result="result6"
         in="result4"
         id="feGaussianBlur11600" />
      <feComposite
         operator="over"
         in="result6"
         in2="result4"
         result="result8"
         id="feComposite11602" />
      <feComposite
         operator="in"
         result="fbSourceGraphic"
         in="result6"
         in2="result8"
         id="feComposite11604" />
      <feSpecularLighting
         specularExponent="45"
         specularConstant="2"
         surfaceScale="2.5"
         lighting-color="#ffffff"
         result="result1"
         in="fbSourceGraphic"
         id="feSpecularLighting11608">
        <fePointLight
           z="20000"
           y="-10000"
           x="-5000"
           id="fePointLight11606" />
      </feSpecularLighting>
      <feComposite
         operator="in"
         result="result2"
         in="result1"
         in2="fbSourceGraphic"
         id="feComposite11610" />
      <feComposite
         k3="1.5"
         k2="1.2"
         operator="arithmetic"
         result="result4"
         in="fbSourceGraphic"
         in2="result2"
         id="feComposite11612"
         k1="0"
         k4="0" />
      <feComposite
         operator="over"
         in2="result4"
         result="result9"
         id="feComposite11614" />
      <feBlend
         mode="screen"
         in2="result9"
         id="feBlend11616" />
    </filter>
  </defs>
  <metadata
     id="metadata5">
    <rdf:RDF>
      <cc:Work
         rdf:about="">
        <dc:format>image/svg+xml</dc:format>
        <dc:type
           rdf:resource="http://purl.org/dc/dcmitype/StillImage" />
        <dc:title></dc:title>
      </cc:Work>
    </rdf:RDF>
  </metadata>
  <g
     id="layer1">
    <g
       id="g11670"
       transform="matrix(1.0172328,0,0,1.0172328,27.554681,-0.46896946)">
      <path
         d="m 188.32896,129.90638 c 1.28824,-1.31672 2.54089,-2.632 3.75014,-3.94374 7.52663,-8.17576 13.51877,-16.24542 17.6917,-23.97418 4.15867,-7.730194 6.55297,-15.14224 6.56792,-22.112287 0.006,-4.359388 -0.98577,-8.555801 -3.12027,-12.245451 -2.91955,-5.072564 -7.70457,-8.697432 -13.48601,-10.946529 -5.80067,-2.264047 -12.66825,-3.276845 -20.38706,-3.281828 -9.62696,0.006 -20.61691,1.599979 -32.50648,4.646221 -2.6064,0.666892 -5.25548,1.40569 -7.94372,2.212075 -1.71315,0.513883 -3.4377,1.049113 -5.18144,1.617793 -6.75866,2.210663 -13.73442,4.844806 -20.84041,7.879647 2.78574,1.34448 6.08322,3.085383 9.23409,5.115275 4.81918,-1.920986 9.55509,-3.644114 14.17069,-5.152982 1.57225,-0.51459 3.12526,-0.997162 4.669,-1.463352 2.69893,-0.814213 5.35228,-1.556561 7.95156,-2.221335 11.35221,-2.903179 21.69804,-4.382872 30.40401,-4.382872 h 0.0428 c 6.98643,-0.0041 12.89456,0.951585 17.37923,2.713854 4.50459,1.776492 7.51879,4.233414 9.34867,7.389267 1.33381,2.320275 2.00853,4.968642 2.01494,8.120217 0.0147,5.007075 -1.82704,11.262535 -5.5786,18.194874 -4.3345,8.049063 -11.1743,16.962843 -20.06818,26.060993 -0.90961,-0.85835 -1.83415,-1.71598 -2.77507,-2.57293 -7.45617,-6.7857 -15.88101,-13.5344 -25.11367,-20.05748 -2.89536,-2.046263 -5.87326,-4.068303 -8.92449,-6.06402 -4.832,-3.160816 -9.84548,-6.254026 -15.03476,-9.250456 V 86.18661 C 125.40352,83.190908 120.2192,80.396635 115.06693,77.792373 L 105.351,73.097046 C 95.677798,68.635874 86.188898,64.893545 77.090038,61.913499 c -0.96226,2.259769 -1.7466,4.915983 -2.26617,7.941585 6.72237,2.211369 13.69242,4.864718 20.81121,7.938015 3.21136,1.386464 6.451912,2.859036 9.715962,4.41705 6.97076,3.327362 14.03831,7.034808 21.11654,11.122315 7.07824,4.084683 13.82694,8.350116 20.19486,12.724456 2.98005,2.04769 5.87398,4.11954 8.68106,6.20777 7.78997,5.79567 14.88815,11.72019 21.17279,17.62051 l 0.0201,0.008 5.89747,5.77718 0.004,0.0161 c 5.3e-4,0 5.3e-4,-0.002 0.001,-0.002 1.22703,1.25551 2.42062,2.50888 3.57008,3.75656 7.16935,7.78143 12.76076,15.36927 16.49881,22.30229 3.75086,6.93232 5.59284,13.18779 5.57789,18.19486 -0.006,3.15302 -0.6797,5.80095 -2.01421,8.12158 -1.82918,3.15498 -4.84408,5.61134 -9.34796,7.38791 -1.5943,0.62556 -3.37222,1.14825 -5.31172,1.5644 -1.21637,-4.14808 -3.96581,-7.85465 -8.00565,-10.18675 -8.33801,-4.81454 -19.00055,-1.95786 -23.81476,6.38094 -0.50676,0.87774 -0.9224,1.78127 -1.26189,2.70099 -0.99075,2.68347 -1.28114,5.50316 -0.93097,8.22671 0.67047,5.20926 3.67399,10.05798 8.57431,12.88742 8.33873,4.81428 18.99986,1.95729 23.81477,-6.38115 0.97506,-1.68952 1.63058,-3.47448 1.99428,-5.28715 2.82991,-0.52912 5.48539,-1.26255 7.94799,-2.22311 5.78218,-2.2489 10.56648,-5.87376 13.48675,-10.9449 2.1352,-3.69023 3.12594,-7.88805 3.12024,-12.24689 -0.0147,-6.97003 -2.40923,-14.38209 -6.56791,-22.11157 -4.84551,-8.96645 -12.13727,-18.40907 -21.44114,-27.92003 z m -165.956402,0.002 c 1.88112,1.92383 3.84502,3.84907 5.88792,5.77432 0.90947,0.85765 1.83301,1.71459 2.77386,2.57151 5.62693,5.12168 11.80624,10.22127 18.46741,15.21838 -0.22939,-3.08466 -0.3709,-6.81204 -0.18905,-10.55862 -5.45847,-4.30824 -10.52789,-8.66479 -15.15312,-13.00925 -2.05401,-1.92879 -4.02103,-3.85549 -5.89712,-5.77432 -1.22859,-1.25623 -2.42189,-2.5096 -3.57063,-3.75727 -7.17019,-7.78218 -12.76238,-15.3693 -16.4990204,-22.302345 -3.75135,-6.93234 -5.59327,-13.187092 -5.57874,-18.194873 0.006,-3.152282 0.68113,-5.799236 2.01565,-8.120218 1.82965,-3.155854 4.84258,-5.612776 9.3471104,-7.389268 4.4848,-1.761561 10.393,-2.71813 17.37921,-2.713148 8.71374,-0.006 19.07536,1.474005 30.44711,4.382892 -0.23716,1.003538 -0.47019,2.014217 -0.69674,3.034843 -2.21948,10.031944 -3.90203,20.922972 -4.95796,32.428917 -0.32363,3.52952 -0.58468,7.12096 -0.78769,10.75936 -0.32135,5.76506 -0.49345,11.6547 -0.49373,17.64824 0.002,5.98645 0.17129,11.86967 0.49153,17.62833 5.3e-4,5.5e-4 0.002,0.004 0.002,0.004 l 0.79179,10.76146 -0.007,0.007 c 0.001,0.001 0.004,0.001 0.006,0.004 0.97226,10.6049 2.47915,20.68454 4.44896,30.0545 2.43656,-0.29695 5.12763,-0.94526 8.0066,-2.00733 -1.4448,-6.92635 -2.63412,-14.285 -3.53162,-21.98388 -0.40498,-3.47327 -0.75016,-7.01559 -1.03274,-10.6191 -0.60498,-7.70172 -0.92455,-15.67817 -0.92383,-23.85034 -10e-4,-8.17076 0.316,-16.14721 0.92098,-23.84749 0.28329,-3.60709 0.63203,-7.150131 1.03701,-10.627679 1.12739,-9.654021 2.7103,-18.775658 4.67967,-27.174173 l 2.0543,-7.996362 c 1.39999,-5.002091 2.9416,-9.698144 4.61134,-14.029084 4.06047,-10.570019 8.88392,-18.977773 13.93727,-24.514389 2.52169,-2.772221 5.08393,-4.822027 7.58712,-6.150125 2.510292,-1.329528 4.935222,-1.960833 7.406362,-1.965109 2.47116,0.004 4.89532,0.635581 7.40704,1.965109 2.53237,1.335926 5.12595,3.437683 7.6761,6.25546 -2.98361,3.1288 -4.81918,7.361507 -4.81918,12.026248 0,9.628378 7.80562,17.434022 17.43403,17.434022 1.01492,0 2.00782,-0.09179 2.97578,-0.258363 2.81705,-0.484691 5.40279,-1.643396 7.58498,-3.307451 4.17578,-3.185027 6.87254,-8.210603 6.87254,-13.868208 0,-9.628397 -7.80492,-17.434024 -17.4333,-17.434024 -1.95159,0 -3.82417,0.325972 -5.57576,0.916703 -0.34021,-0.396422 -0.68113,-0.787178 -1.02633,-1.167239 -3.02488,-3.321675 -6.28393,-6.003511 -9.81629,-7.8832189 -3.52533,-1.877782 -7.34948,-2.931858 -11.27971,-2.927601 -3.93023,-0.0041 -7.754402,1.049819 -11.278932,2.928801 -6.18214,3.3044249 -11.52729,8.9954809 -16.24397,16.4231849 -5.56581,8.79994 -10.26966,20.125824 -13.96714,33.342089 -11.89008,-3.046242 -22.87834,-4.64053 -32.50488,-4.644808 -7.7188,0.004 -14.58565,1.017076 -20.3866,3.280395 -5.7814404,2.249098 -10.56568041,5.874692 -13.4852204,10.947255 -2.13549,3.688945 -3.12692,7.88677 -3.12107,12.245453 0.0141,6.96934 2.40907,14.381386 6.56772999,22.111574 4.84594001,8.96718 12.13762041,18.41052 21.44168041,27.92077 z m 150.254022,3.58147 c -5.28037,4.71951 -11.05899,9.43407 -17.28454,14.06535 -2.80427,2.08681 -5.70033,4.15442 -8.67753,6.19924 -6.36864,4.37504 -13.11661,8.6412 -20.19627,12.7287 -7.07825,4.0861 -14.1458,7.79425 -21.11726,11.12091 -3.26405,1.55729 -6.505302,3.03132 -9.716662,4.41777 -7.25902,3.13306 -14.36501,5.83354 -21.2105,8.07132 -1.57224,0.51465 -3.12596,0.99672 -4.66973,1.46241 -5.2e-4,-0.001 -5.2e-4,-0.004 -0.002,-0.006 l -7.94397,2.2173 -0.009,-0.001 c 0.002,0.004 0.002,0.007 0.004,0.0117 -11.37145,2.90979 -21.73308,4.38942 -30.44681,4.38301 -6.98593,0.004 -12.89443,-0.95053 -17.38008,-2.71265 -4.5033404,-1.77663 -7.5165504,-4.23384 -9.3470704,-7.38854 -1.33565,-2.32233 -2.00924,-4.96872 -2.01592,-8.1203 -0.008,-2.6868 0.52434,-5.73517 1.59336,-9.05115 4.20146,1.01991 8.7852004,0.49251 12.8248904,-1.83985 8.33815,-4.81491 11.19544,-15.47602 6.38087,-23.81474 -0.50739,-0.87971 -1.08341,-1.69395 -1.71151,-2.44838 -1.82882,-2.19712 -4.12447,-3.8569 -6.65612,-4.91526 -4.84678,-2.02347 -10.5473804,-1.84625 -15.44692041,0.9822 -8.33875999,4.8142 -11.19570959,15.47674 -6.38146999,23.81545 0.97557,1.68895 2.19442,3.14944 3.58175,4.37076 -1.56719,4.43842 -2.42573,8.74871 -2.43408,12.90097 -0.006,4.35813 0.98421,8.55547 3.12081,12.24618 2.91924999,5.07113 7.70349,8.69603 13.4852204,10.94574 5.80151,2.264 12.66752,3.27564 20.38631,3.2807 9.62704,-0.004 20.61648,-1.59948 32.50671,-4.64581 1.4662,5.23606 3.08895,10.17986 4.85762,14.78025 4.32878,11.22324 9.49459,20.45136 15.53441,27.10391 3.02486,3.3201 6.28391,6.00168 9.81699,7.88193 3.52453,1.87944 7.348692,2.93314 11.278932,2.93035 h 0.0242 c 3.92096,0 7.73727,-1.05426 11.25541,-2.93035 6.18215,-3.30374 11.5266,-8.99595 16.24329,-16.42193 5.56578,-8.80029 10.27036,-20.12698 13.96713,-33.34273 0.72526,-2.59172 1.41209,-5.25604 2.05837,-7.98898 0.2377,-1.00311 0.47045,-2.01343 0.69606,-3.03464 1.68754,-7.62598 3.0626,-15.75188 4.09109,-24.26428 -2.55798,1.74091 -5.71528,3.72666 -9.04976,5.44123 -1.00213,6.88464 -2.23984,13.45777 -3.68894,19.63629 -0.64342,2.74632 -1.33095,5.41085 -2.0548,7.99644 -1.39997,5.00253 -2.94161,9.69745 -4.61062,14.02851 -4.06048,10.56986 -8.88464,18.97784 -13.93655,24.51409 -2.5224,2.7733 -5.08537,4.82281 -7.58785,6.15178 -2.51171,1.32895 -4.93586,1.96005 -7.40704,1.9634 -2.47114,-0.004 -4.89534,-0.63445 -7.406352,-1.9634 -4.38076,-2.31087 -8.94443,-6.89909 -13.14652,-13.55414 -4.98643,-7.85359 -9.45118,-18.50104 -12.99208,-31.14074 1.71317,-0.51352 3.4377,-1.04904 5.18074,-1.61813 9.1309,-2.9851 18.65466,-6.74009 28.364212,-11.21677 3.22061,-1.48556 6.46115,-3.05138 9.71665,-4.69563 5.15225,-2.60425 10.33586,-5.39852 15.52514,-8.39352 h 5.3e-4 c 5.1843,-2.99429 10.19422,-6.08181 15.02123,-9.23838 0.004,-0.0147 0.007,-0.0235 0.007,-0.0235 l 8.92448,-6.06685 0.0205,0.004 c 8.69816,-6.14512 16.67174,-12.49097 23.79979,-18.88239 -1.4747,-1.96226 -3.38218,-3.96865 -5.74086,-5.93233 z"
         style="fill:#000000;fill-opacity:1;fill-rule:nonzero;stroke:#000000;stroke-width:0.0711737"
         id="path2026" />
      <g
         id="g3938"
         transform="matrix(0.03527778,0,0,-0.03527778,-396.61,427.07873)" />
      <g
         id="g11630"
         transform="matrix(0.01675031,0,0,-0.01675031,43.311958,373.66129)"
         style="stroke:#000000">
        <g
           id="g11650"
           style="opacity:1;stroke:#000000">
          <path
             style="color:#000000;font-style:normal;font-variant:normal;font-weight:normal;font-stretch:normal;font-size:medium;line-height:normal;font-family:sans-serif;font-variant-ligatures:normal;font-variant-position:normal;font-variant-caps:normal;font-variant-numeric:normal;font-variant-alternates:normal;font-variant-east-asian:normal;font-feature-settings:normal;font-variation-settings:normal;text-indent:0;text-align:start;text-decoration:none;text-decoration-line:none;text-decoration-style:solid;text-decoration-color:#000000;letter-spacing:normal;word-spacing:normal;text-transform:none;writing-mode:lr-tb;direction:ltr;text-orientation:mixed;dominant-baseline:auto;baseline-shift:baseline;text-anchor:start;white-space:normal;shape-padding:0;shape-margin:0;inline-size:0;clip-rule:nonzero;display:inline;overflow:visible;visibility:visible;isolation:auto;mix-blend-mode:normal;color-interpolation:sRGB;color-interpolation-filters:linearRGB;solid-color:#000000;solid-opacity:1;vector-effect:none;fill:#000000;fill-opacity:1;fill-rule:nonzero;stroke:#000000;stroke-width:15.9561;stroke-linecap:butt;stroke-linejoin:miter;stroke-miterlimit:4;stroke-dasharray:none;stroke-dashoffset:0;stroke-opacity:1;color-rendering:auto;image-rendering:auto;shape-rendering:auto;text-rendering:auto;enable-background:accumulate;stop-color:#000000;stop-opacity:1"
             d="m 3177.161,12239.216 c -101.852,13.824 -324.1535,71.187 -430.8145,111.169 -590.8019,221.464 -1067.5246,725.239 -1265.7107,1337.536 -75.7633,234.07 -104.2202,419.233 -104.2205,678.134 -2e-4,271.483 29.3968,457.899 110.7132,702.068 54.7181,164.302 209.7638,499.901 278.2801,602.342 19.0762,28.522 27.6664,51.857 19.0891,51.857 -57.3824,0 -460.3931,-217.721 -721.5193,-389.791 -374.51975,-246.792 -613.03035,-446.941 -1013.034354,-850.102 -208.606096,-210.252 -131.434034,-134.967 -401.680206,-464.62 -149.02648,-178.909 -458.74984,239.779 -288.80079,463.53 679.849096,895.074 1733.21195,1643.385 2743.60435,1949.064 654.8138,198.103 1337.9986,241.861 1999.3618,128.057 1125.5459,-193.677 2264.3679,-858.981 3364.6299,-1965.628 l 253.007,-254.475 -54.229,-41.362 c -101.268,-77.241 -231.872,-126.389 -337.955,-127.176 -144.335,-1.071 -220.351,40.117 -411.896,223.174 -328.867,314.293 -651.729,576.033 -1002.355,812.593 -299.824,202.285 -749.936,457.827 -749.936,425.761 0,-6.378 28.105,-65.705 62.455,-131.838 161.448,-310.827 262.092,-645.598 286.911,-954.343 33.144,-412.316 -44.587,-803.012 -233.546,-1173.859 -304.262,-597.141 -852.956,-1006.847 -1499.374,-1119.573 -125.6347,-21.909 -479.6375,-29.258 -602.9801,-12.518 z m 563.1251,652.261 c 582.3308,119.772 1039.6093,578.765 1169.495,1173.88 40.014,183.336 42.684,482.537 5.895,660.641 -59.754,289.289 -190.9727,546.905 -384.9253,755.706 -566.867,610.268 -1513.7151,635.973 -2104.0795,57.123 -205.5567,-201.547 -352.2507,-450.808 -424.5989,-721.474 -47.4206,-177.407 -58.7707,-527.978 -22.8354,-705.325 128.8792,-636.045 616.514,-1127.825 1219.1594,-1229.521 131.924,-22.262 412.6302,-17.615 541.8897,8.97 z"
             id="path11652" />
        </g>
        <g
           id="g11656"
           style="opacity:1;stroke:#000000">
          <path
             style="color:#000000;font-style:normal;font-variant:normal;font-weight:normal;font-stretch:normal;font-size:medium;line-height:normal;font-family:sans-serif;font-variant-ligatures:normal;font-variant-position:normal;font-variant-caps:normal;font-variant-numeric:normal;font-variant-alternates:normal;font-variant-east-asian:normal;font-feature-settings:normal;font-variation-settings:normal;text-indent:0;text-align:start;text-decoration:none;text-decoration-line:none;text-decoration-style:solid;text-decoration-color:#000000;letter-spacing:normal;word-spacing:normal;text-transform:none;writing-mode:lr-tb;direction:ltr;text-orientation:mixed;dominant-baseline:auto;baseline-shift:baseline;text-anchor:start;white-space:normal;shape-padding:0;shape-margin:0;inline-size:0;clip-rule:nonzero;display:inline;overflow:visible;visibility:visible;isolation:auto;mix-blend-mode:normal;color-interpolation:sRGB;color-interpolation-filters:linearRGB;solid-color:#000000;solid-opacity:1;vector-effect:none;fill:#000000;fill-opacity:1;fill-rule:nonzero;stroke:#000000;stroke-width:15.9561;stroke-linecap:butt;stroke-linejoin:miter;stroke-miterlimit:4;stroke-dasharray:none;stroke-dashoffset:0;stroke-opacity:1;color-rendering:auto;image-rendering:auto;shape-rendering:auto;text-rendering:auto;enable-background:accumulate;stop-color:#000000;stop-opacity:1"
             d="m 3300.2706,13407.912 c -177.446,48.131 -328.5618,135.389 -457.3623,264.094 -205.1952,205.042 -296.6268,413.36 -308.1228,702.027 -8.2928,208.232 17.7771,341.597 99.7243,510.154 242.8955,499.611 808.5932,716.158 1302.1336,498.45 l 86.1907,-38.02 -79.7805,-12.117 c -43.8792,-6.664 -102.9643,-21.774 -131.3001,-33.577 -82.8113,-34.495 -204.6688,-159.735 -244.5344,-251.323 -49.0249,-112.631 -50.5084,-291.165 -3.2999,-397.139 139.1316,-312.324 531.6074,-391.454 768.1815,-154.88 63.271,63.271 129.3244,182.021 129.7702,233.301 0.128,15.453 6.3715,37.765 13.8601,49.581 25.3627,40.02 72.3887,-200.517 71.2692,-364.54 -1.267,-185.574 -34.1687,-316.561 -121.9853,-485.639 -119.5525,-230.18 -333.2822,-416.131 -572.785,-498.339 -163.9231,-56.266 -392.1599,-65.376 -551.9593,-22.033 z"
             id="path11658" />
          <path
             style="color:#000000;font-style:normal;font-variant:normal;font-weight:normal;font-stretch:normal;font-size:medium;line-height:normal;font-family:sans-serif;font-variant-ligatures:normal;font-variant-position:normal;font-variant-caps:normal;font-variant-numeric:normal;font-variant-alternates:normal;font-variant-east-asian:normal;font-feature-settings:normal;font-variation-settings:normal;text-indent:0;text-align:start;text-decoration:none;text-decoration-line:none;text-decoration-style:solid;text-decoration-color:#000000;letter-spacing:normal;word-spacing:normal;text-transform:none;writing-mode:lr-tb;direction:ltr;text-orientation:mixed;dominant-baseline:auto;baseline-shift:baseline;text-anchor:start;white-space:normal;shape-padding:0;shape-margin:0;inline-size:0;clip-rule:nonzero;display:inline;overflow:visible;visibility:visible;isolation:auto;mix-blend-mode:normal;color-interpolation:sRGB;color-interpolation-filters:linearRGB;solid-color:#000000;solid-opacity:1;vector-effect:none;fill:#0000ff;fill-opacity:1;fill-rule:nonzero;stroke:#000000;stroke-width:15.9561;stroke-linecap:butt;stroke-linejoin:miter;stroke-miterlimit:4;stroke-dasharray:none;stroke-dashoffset:0;stroke-opacity:1;color-rendering:auto;image-rendering:auto;shape-rendering:auto;text-rendering:auto;enable-background:accumulate;stop-color:#000000;stop-opacity:1"
             d="m 3538.2715,13372.613 c -85.5883,-0.665 -169.248,8.385 -240.0899,27.6 -178.6927,48.469 -331.1799,136.514 -460.9121,266.15 -206.2682,206.114 -298.8982,417.157 -310.455,707.352 -8.3247,209.031 18.1397,344.514 100.5195,513.961 244.6289,503.176 815.1419,721.665 1312.5293,502.26 l 111.2832,-49.088 -106.8945,-16.235 c -43.1604,-6.555 -102.4988,-21.836 -129.4317,-33.054 -39.5242,-16.464 -90.4201,-55.893 -135.7207,-102.452 -45.3006,-46.558 -85.2877,-100.404 -104.5644,-144.691 -47.8172,-109.856 -49.1561,-287.834 -3.3282,-390.709 137.0661,-307.687 522.4265,-385.31 755.252,-152.484 30.8524,30.852 62.9503,75.942 87.1133,119.382 24.163,43.441 40.1267,86.078 40.3203,108.346 0.1461,17.538 6.254,39.826 15.0996,53.783 2.2179,3.5 5.3123,6.751 9.9551,7.811 4.6427,1.06 9.2456,-0.891 12.2558,-3.379 6.0206,-4.977 9.7231,-12.454 13.9063,-22.697 8.3664,-20.486 16.5702,-52.136 24.0176,-90.229 14.8947,-76.186 26.4167,-177.57 25.8515,-260.371 -1.2732,-186.491 -34.665,-319.411 -122.8828,-489.262 -120.5351,-232.071 -335.657,-419.274 -577.2754,-502.209 -93.2759,-32.016 -206.5068,-48.93 -316.5488,-49.785 z m -0.166,16.174 c 108.5148,0.877 220.3975,17.421 311.5351,48.703 237.3872,81.482 449.7251,266.183 568.2949,494.471 87.4155,168.306 119.8252,297.359 121.086,482.016 0.5543,81.222 -10.8756,182.118 -25.5547,257.201 -7.3395,37.541 -15.5797,68.773 -23.1289,87.258 -3.247,7.95 -6.4394,12.842 -8.2481,14.982 -6.0107,-9.98 -12.1318,-31.512 -12.2402,-44.602 v 0 0 c -0.2522,-29.011 -17.5391,-71.39 -42.332,-115.962 -24.7929,-44.573 -57.3568,-90.492 -89.7754,-122.911 -240.3227,-240.322 -639.9142,-159.685 -781.1113,157.276 -48.5891,109.073 -46.9593,288.162 3.2734,403.568 20.5889,47.302 61.4624,101.869 107.7598,149.451 46.2973,47.583 97.7343,88.022 141.0214,106.053 29.7387,12.387 88.5719,27.327 133.17,34.1 l 52.6679,8 -61.0996,26.951 c -489.6934,216.011 -1050.5761,1.407 -1291.7383,-494.639 -81.5145,-167.667 -107.1886,-298.917 -98.9277,-506.349 11.4352,-287.139 101.6669,-492.73 305.7891,-696.7 127.8688,-127.774 277.6132,-214.246 453.8125,-262.039 68.9826,-18.71 151.3457,-27.506 235.7461,-26.824 z"
             id="path11660" />
        </g>
      </g>
    </g>
  </g>
  <style
     type="text/css"
     id="style2670">
	.st0{fill:url(#XMLID_66_);}
	.st1{fill:url(#XMLID_67_);}
	.st2{opacity:0.3;fill:#FFFFFF;}
	.st3{fill:#4A150F;}
	.st4{fill:url(#XMLID_69_);}
	.st5{fill:url(#XMLID_70_);}
	.st6{fill:url(#XMLID_72_);}
	.st7{fill:url(#XMLID_74_);}
	.st8{fill:url(#XMLID_76_);}
	.st9{fill:url(#XMLID_77_);}
	.st10{fill:url(#XMLID_78_);}
	.st11{fill:url(#XMLID_79_);}
	.st12{fill:url(#XMLID_86_);}
	.st13{fill:url(#XMLID_87_);}
	.st14{fill:url(#XMLID_95_);}
	.st15{fill:url(#XMLID_96_);}
	.st16{fill:none;}
	.st17{fill:url(#XMLID_98_);}
	.st18{fill:url(#XMLID_99_);}
	.st19{fill:url(#XMLID_100_);}
	.st20{fill:url(#XMLID_101_);}
	.st21{fill:url(#XMLID_102_);}
	.st22{fill:url(#XMLID_103_);}
	.st23{fill:url(#XMLID_104_);}
	.st24{fill:url(#XMLID_105_);}
	.st25{fill:url(#XMLID_106_);}
	.st26{fill:url(#XMLID_107_);}
	.st27{fill:#E73D25;}
	.st28{font-family:'Righteous-Regular';}
	.st29{font-size:68.1899px;}
	.st30{font-family:'TitilliumWeb-Bold';}
	.st31{font-family:'RozhaOne-Regular';}
	.st32{font-family:'Gurajada';}
	.st33{font-size:98.2858px;}
	.st34{font-family:'PalanquinDark-Regular';}
	.st35{font-family:'Roboto-BoldCondensed';}
	.st36{fill:url(#XMLID_108_);}
	.st37{fill:url(#XMLID_109_);}
	.st38{fill:url(#XMLID_110_);}
	.st39{fill:url(#XMLID_111_);}
	.st40{fill:url(#XMLID_112_);}
	.st41{fill:none;stroke:#D9D9DA;stroke-width:7;stroke-miterlimit:10;}
</style>
  <g
     aria-label="IONIC"
     transform="matrix(6.0231501,0,0,6.1051594,-35.308226,-1436.4587)"
     id="text181"
     style="font-style:normal;font-variant:normal;font-weight:500;font-stretch:normal;font-size:10.429px;line-height:1.25;font-family:'Arkitech Stencil';-inkscape-font-specification:'Arkitech Stencil Medium';text-align:justify;letter-spacing:0px;text-anchor:start;white-space:pre;shape-inside:url(#rect183);fill:#000000;fill-opacity:1;stroke:none">
    <path
       d="m 10.492745,286.86695 v -1.81763 h 1.155303 v -3.64576 h -1.155303 v -1.82814 h 4.607929 v 1.82814 h -1.142023 v 3.64576 h 1.142023 v 1.81763 z"
       style="font-style:normal;font-variant:normal;font-weight:normal;font-stretch:normal;font-size:10.429px;font-family:'Dendritic Voltage';-inkscape-font-specification:'Dendritic Voltage';stroke-width:1.1326"
       id="path197" />
    <path
       id="path199"
       style="font-style:normal;font-variant:normal;font-weight:normal;font-stretch:normal;font-size:10.429px;font-family:'Dendritic Voltage';-inkscape-font-specification:'Dendritic Voltage';stroke-width:1.1326"
       d="m 20.308751,286.97201 c -0.646261,0 -1.248257,-0.0911 -1.80599,-0.27317 -0.557732,-0.18912 -1.044641,-0.44827 -1.460727,-0.77748 -0.416085,-0.33621 -0.743642,-0.73196 -0.98267,-1.18723 -0.239029,-0.46228 -0.358543,-0.96661 -0.358543,-1.51295 0,-0.54634 0.119513,-1.04715 0.358543,-1.50243 0.239028,-0.46229 0.566585,-0.85803 0.98267,-1.18723 0.416086,-0.33622 0.902995,-0.59538 1.460727,-0.77749 0.557733,-0.18912 1.159729,-0.28367 1.80599,-0.28367 0.646262,0 1.248258,0.0946 1.805989,0.28367 0.557733,0.18211 1.044643,0.44127 1.460727,0.77749 0.416086,0.3292 0.743643,0.72494 0.982672,1.18723 0.239027,0.45528 0.358542,0.95609 0.358542,1.50243 0,0.54634 -0.119513,1.05067 -0.358542,1.51295 -0.239029,0.45527 -0.566586,0.85102 -0.982672,1.18723 -0.416084,0.32921 -0.902994,0.58836 -1.460727,0.77748 -0.557731,0.18212 -1.159727,0.27317 -1.805989,0.27317 z m 0,-1.81763 c 0.318704,0 0.619703,-0.042 0.902995,-0.12608 0.283291,-0.084 0.531174,-0.20662 0.743643,-0.36772 0.212469,-0.16811 0.380674,-0.37124 0.504614,-0.60939 0.123944,-0.24515 0.185911,-0.52182 0.185911,-0.83001 0,-0.30818 -0.06197,-0.58136 -0.185911,-0.8195 -0.123943,-0.24515 -0.292145,-0.44828 -0.504614,-0.60938 -0.212469,-0.16812 -0.460352,-0.29418 -0.743643,-0.37823 -0.283292,-0.0841 -0.584291,-0.12609 -0.902995,-0.12609 -0.318704,0 -0.619703,0.042 -0.902994,0.12609 -0.274441,0.0841 -0.517895,0.21011 -0.730364,0.37823 -0.21247,0.1611 -0.380675,0.36423 -0.504615,0.60938 -0.123944,0.23814 -0.185911,0.51132 -0.185911,0.8195 0,0.30819 0.06198,0.58486 0.185911,0.83001 0.123944,0.23815 0.292145,0.44128 0.504615,0.60939 0.212469,0.1611 0.455923,0.28367 0.730364,0.36772 0.283291,0.0841 0.58429,0.12608 0.902994,0.12608 z"
       sodipodi:nodetypes="scccscccscccscccsssccsccsscccscccs" />
    <path
       d="m 30.33764,286.86695 v -4.91705 q 0,-0.3152 -0.132793,-0.43077 -0.119514,-0.11557 -0.464778,-0.11557 h -1.77943 v 5.46339 h -2.297325 v -7.29153 h 4.674326 q 1.102185,0 1.699755,0.4728 0.59757,0.47279 0.59757,1.35534 v 5.46339 z"
       style="font-style:normal;font-variant:normal;font-weight:normal;font-stretch:normal;font-size:10.429px;font-family:'Dendritic Voltage';-inkscape-font-specification:'Dendritic Voltage';stroke-width:1.1326"
       id="path201" />
    <path
       d="m 33.564277,286.86695 v -1.81763 h 1.155303 v -3.64576 h -1.155303 v -1.82814 h 4.60793 v 1.82814 h -1.142023 v 3.64576 h 1.142023 v 1.81763 z"
       style="font-style:normal;font-variant:normal;font-weight:normal;font-stretch:normal;font-size:10.429px;font-family:'Dendritic Voltage';-inkscape-font-specification:'Dendritic Voltage';stroke-width:1.1326"
       id="path203" />
    <path
       d="m 41.321987,286.86695 q -1.115464,0 -1.713034,-0.46229 -0.584291,-0.47279 -0.584291,-1.35534 v -3.64576 q 0,-0.88255 0.597571,-1.35534 0.597569,-0.4728 1.699754,-0.4728 h 4.60793 v 1.82814 h -3.81117 q -0.239028,0 -0.39838,0.0316 -0.159351,0.0211 -0.252307,0.0946 -0.07967,0.0735 -0.119513,0.19963 -0.02656,0.11556 -0.02656,0.31519 v 2.64764 q 0,0.11557 0.01328,0.18913 0.02656,0.063 0.106233,0.10506 0.07967,0.042 0.239027,0.0525 0.159353,0.0105 0.438219,0.0105 h 3.811169 v 1.81764 z"
       style="font-style:normal;font-variant:normal;font-weight:normal;font-stretch:normal;font-size:10.429px;font-family:'Dendritic Voltage';-inkscape-font-specification:'Dendritic Voltage';stroke-width:1.1326"
       id="path205" />
    <path
       style="fill:#ffffff;stroke:#000000;stroke-width:3.2978"
       d="m 106.69038,1170.037 v -19.7868 h 13.19122 13.19122 v -44.5204 -44.5203 H 119.8816 106.69038 v -18.138 -18.1379 h 51.11597 51.11596 v 18.1379 18.138 h -13.19122 -13.19121 v 44.5203 44.5204 h 13.19121 13.19122 v 19.7868 19.7868 h -51.11596 -51.11597 z"
       id="path179"
       transform="matrix(0.04392773,0,0,0.04333766,5.8620864,235.28603)" />
    <path
       style="fill:#ffffff;stroke:#000000;stroke-width:3.2978"
       d="m 294.66522,1186.9243 c -41.08979,-13.4631 -69.32507,-47.4107 -69.22167,-83.226 0.0466,-16.1261 13.41745,-42.4348 28.13345,-55.3556 50.16354,-44.0442 141.0314,-31.0461 169.46993,24.2416 20.8334,40.5024 1.63752,87.2264 -44.28771,107.7991 -17.73544,7.9447 -67.90073,11.8467 -84.094,6.5409 z m 66.92637,-42.2396 c 20.28088,-10.2301 27.79825,-38.3529 16.08837,-60.1872 -8.35736,-15.5833 -24.18443,-23.288 -47.83796,-23.288 -34.43419,0 -54.93895,16.6162 -54.93895,44.5203 0,14.9915 9.18506,32.2386 20.41015,38.3249 17.80915,9.6562 47.81882,9.9415 66.27839,0.63 z"
       id="path181"
       transform="matrix(0.04392773,0,0,0.04333766,5.8620864,235.28603)" />
    <path
       style="fill:#ffffff;stroke:#000000;stroke-width:3.2978"
       d="m 452.95981,1107.3787 v -82.4451 h 61.33543 c 94.98402,0 93.66136,-1.3956 93.66136,98.8282 v 66.062 h -24.73353 -24.73353 v -60.8933 c 0,-70.65 1.48826,-67.721 -34.41014,-67.721 h -21.65253 v 64.3071 64.3072 h -24.73353 -24.73353 z"
       id="path183"
       transform="matrix(0.04392773,0,0,0.04333766,5.8620864,235.28603)" />
    <path
       style="fill:#ffffff;stroke:#000000;stroke-width:3.2978"
       d="m 631.04123,1170.037 v -19.7868 h 13.19122 13.19121 v -44.5204 -44.5203 h -13.19121 -13.19122 v -18.138 -18.1379 h 51.11597 51.11596 v 18.1379 18.138 h -13.19122 -13.19121 v 44.5203 44.5204 h 13.19121 13.19122 v 19.7868 19.7868 H 682.1572 631.04123 Z"
       id="path185"
       transform="matrix(0.04392773,0,0,0.04333766,5.8620864,235.28603)" />
    <path
       style="fill:#ffffff;stroke:#000000;stroke-width:3.2978"
       d="m 790.98473,1186.7611 c -30.84908,-7.4448 -34.62694,-16.0993 -34.62694,-79.3245 0,-81.4284 1.21985,-82.503 93.66136,-82.503 h 61.33543 v 18.1379 18.138 l -43.6959,0.3287 c -64.91917,0.4884 -60.18493,-3.1292 -60.18493,45.9892 v 41.0739 l 51.94041,0.9082 51.94042,0.9082 v 19.703 19.7031 l -55.23822,-0.3375 c -30.38102,-0.1857 -59.69025,-1.412 -65.13163,-2.7252 z"
       id="path187"
       transform="matrix(0.04392773,0,0,0.04333766,5.8620864,235.28603)" />
    <path
       style="fill:#ffffff;stroke:#000000;stroke-width:3.2978"
       d="m 751.06475,833.96386 c -23.58158,-10.70926 -40.73137,-35.83028 -40.73137,-59.66335 0,-37.23537 39.4161,-70.43809 76.23493,-64.21757 16.76373,2.83218 39.03413,19.75015 46.79145,35.54561 6.89947,14.04871 8.28969,14.05359 37.60111,0.13191 12.95387,-6.15251 19.48421,-11.92183 25.9147,-22.89461 7.64965,-13.05317 8.43638,-17.2955 7.1406,-38.5045 C 900.90542,633.44497 871.14083,585.08656 797.86573,511.89925 719.49352,433.62094 638.01064,376.77199 523.8626,320.73286 489.40055,303.81428 446.3642,284.52798 428.22628,277.87443 410.08836,271.22088 394.91746,265.47149 394.51317,265.098 c -0.40428,-0.3735 0.8155,-6.29476 2.71064,-13.15837 4.08924,-14.81001 2.6314,-14.94802 54.92864,5.20024 106.47338,41.0204 238.33626,120.6587 326.70962,197.31558 l 27.45099,23.81155 17.06936,-19.00264 c 28.69054,-31.94 51.56849,-64.49461 65.98286,-93.89155 12.91674,-26.34258 13.74479,-29.75451 13.74479,-56.63397 0,-23.86558 -1.14381,-30.14653 -6.90639,-37.92475 -35.60231,-48.05536 -138.23482,-49.12143 -277.19915,-2.87936 l -46.06153,15.32754 -14.50236,-8.23749 -14.50236,-8.2375 16.34459,-7.11918 c 29.54873,-12.87048 101.46068,-35.32204 135.74642,-42.38128 111.15815,-22.8868 185.70389,-11.30253 220.45479,34.25826 10.00838,13.12166 17.95513,37.15362 17.95513,54.29851 0,44.53182 -35.44454,111.56173 -90.87574,171.85702 l -18.24616,19.84724 21.84231,23.77764 c 46.58162,50.70903 81.6846,114.60626 86.08394,156.69679 5.2162,49.9058 -29.52488,95.14494 -80.54336,104.88197 -8.48753,1.61985 -11.92067,4.66419 -15.83952,14.04565 -6.6796,15.99056 -19.90657,29.61158 -35.98254,37.05452 -16.7692,7.76389 -32.65663,7.75093 -49.81339,-0.0406 z"
       id="path189"
       transform="matrix(0.04392773,0,0,0.04333766,5.8620864,235.28603)" />
    <path
       style="fill:#ffffff;stroke:#000000;stroke-width:3.2978"
       d="M 482.24026,970.16663 C 435.44831,953.94519 393.15304,896.42216 362.39204,807.1689 l -11.97192,-34.73659 -36.94641,7.82898 c -52.58978,11.14382 -119.63668,11.8075 -152.56759,1.51024 -40.91823,-12.79484 -66.711097,-37.90836 -74.449905,-72.489 -3.459807,-15.46004 -3.279202,-22.32655 1.142891,-43.45235 5.229539,-24.98323 5.218896,-25.14018 -2.484153,-36.63305 -15.67899,-23.39287 -18.381406,-40.85343 -9.586572,-61.93974 12.497085,-29.96276 45.832259,-47.88597 74.636779,-40.12972 25.946,6.98653 42.25263,23.4581 49.15524,49.65244 10.13227,38.45039 -26.5409,81.21829 -67.13104,78.28759 -12.15208,-0.87741 -13.9506,-0.0686 -15.97011,7.18161 -3.92702,14.09838 -3.11973,42.56287 1.52222,53.67263 6.23945,14.93311 24.80081,30.17933 45.53508,37.4023 26.88226,9.3647 101.22582,8.53802 149.52659,-1.66269 135.38571,-28.59228 298.76192,-110.13254 424.19429,-211.71327 l 31.75558,-25.71711 9.30337,9.71063 c 10.75516,11.22596 13.04654,7.7945 -26.6453,39.90288 -96.6215,78.16114 -221.863,148.0663 -338.41168,188.88888 l -35.0137,12.26397 6.32108,20.31606 c 31.0854,99.90913 77.96468,160.47274 124.21391,160.47274 28.4022,0 53.72245,-18.50467 79.78252,-58.30713 28.37097,-43.33189 54.1137,-117.31544 67.53319,-194.08771 l 5.78415,-33.09087 15.94646,-8.90324 15.94644,-8.90323 -1.47758,9.01606 c -23.90466,145.86268 -58.00125,235.74705 -108.57783,286.22924 -32.93576,32.87436 -67.75253,44.02862 -101.21778,32.42718 z"
       id="path191"
       transform="matrix(0.04392773,0,0,0.04333766,5.8620864,235.28603)" />
    <path
       style="fill:#ffffff;stroke:#000000;stroke-width:3.2978"
       d="m 334.2325,698.76098 c -9.65702,-55.23284 -13.91407,-99.79333 -15.9398,-166.84907 l -2.19176,-72.55169 -28.85578,27.66139 c -15.87069,15.21376 -28.85579,29.37793 -28.85579,31.47593 0,2.09799 7.42006,9.47317 16.48902,16.38926 16.23736,12.38276 16.48902,12.84943 16.48902,30.57668 V 583.4655 L 270.75614,567.6332 C 259.41993,558.92541 227.76552,529.51771 200.41299,502.28276 121.39729,423.60665 85.885873,363.28108 85.846577,307.66124 c -0.02095,-29.64715 4.844375,-43.93209 21.375483,-62.75998 10.49949,-11.95826 38.98717,-28.27219 56.95123,-32.61403 39.56651,-9.56309 94.12487,-8.31079 151.92765,3.48725 14.51034,2.96168 28.26087,5.55564 30.55674,5.76436 2.47114,0.22465 8.78918,-13.29328 15.48493,-33.13122 51.2144,-151.736178 136.9485,-206.343188 215.97447,-137.5616 13.47958,11.732185 16.31292,12.793389 34.62695,12.969264 22.41293,0.215247 34.92661,5.548674 50.57706,21.55637 37.45989,38.314866 10.50938,102.719676 -45.02683,107.602656 -19.18115,1.68649 -40.30249,-8.54786 -54.51837,-26.41685 -8.17206,-10.27208 -10.17518,-16.24412 -11.28275,-33.63828 -1.15855,-18.19452 -0.13323,-23.3201 7.34046,-36.691788 l 8.6871,-15.54292 -7.30661,-7.777535 C 557.19545,68.629293 546.00307,61.26213 536.34208,56.535464 514.41568,45.807863 495.77035,47.092084 473.49451,60.864178 421.42463,93.056517 374.66296,204.62761 355.84213,341.57711 c -2.81284,20.46752 -5.11425,42.29463 -5.11425,48.50469 v 11.29099 l 22.04419,-9.89054 c 56.60643,-25.39758 125.25606,-31.70179 182.41967,-16.75189 58.34894,15.2599 124.89242,55.47635 183.02812,110.61554 25.24747,23.94611 26.10704,25.23773 19.98097,30.02314 -12.41247,9.69611 -23.24292,6.22642 -47.03021,-15.06668 -34.44537,-30.83367 -94.72896,-72.27127 -105.14059,-72.27127 -2.54809,0 -0.31461,9.12683 6.25415,25.55798 8.84784,22.13163 10.23741,29.75803 10.3651,56.88712 0.13455,28.57029 -0.78228,33.29186 -10.41031,53.61744 -33.67131,71.08292 -111.32318,100.70584 -177.17512,67.58942 -18.59365,-9.35062 -45.4822,-35.95121 -56.14674,-55.54551 -23.69218,-43.53032 -23.68009,-88.4964 0.0363,-135.29857 4.67154,-9.21882 7.56181,-17.69342 6.42281,-18.83241 -1.13899,-1.139 -10.02341,2.23093 -19.74315,7.48875 l -17.67226,9.55964 -2.18503,29.93945 c -2.79207,38.25729 3.03738,134.92883 11.72043,194.36337 3.70649,25.37047 7.35127,47.11873 8.09953,48.32942 0.74825,1.21072 -5.14692,3.6904 -13.10039,5.5104 l -14.46085,3.30911 -3.80206,-21.74572 z M 533.75601,598.22996 c 35.52494,-16.84376 55.70638,-49.78467 55.78328,-91.05158 0.0775,-41.52242 -20.32456,-75.11302 -56.25058,-92.61322 -22.13304,-10.78138 -58.74995,-10.80143 -81.00294,-0.0442 -18.95604,9.16338 -40.48819,31.89247 -49.4888,52.23982 -9.13225,20.64495 -9.03763,59.10424 0.19816,80.55088 9.14835,21.24356 28.68214,41.87941 48.31578,51.0417 23.26779,10.85821 59.39817,10.80416 82.4451,-0.12334 z M 258.23522,472.93372 c 12.98665,-13.3932 31.66291,-30.08834 41.50279,-37.10029 9.83988,-7.01199 18.53672,-15.71707 19.32631,-19.34466 0.78958,-3.62758 3.10426,-24.40375 5.14374,-46.16926 2.03947,-21.7655 7.2036,-57.38179 11.47585,-79.14729 4.27224,-21.76551 7.44794,-39.9229 7.05712,-40.34976 -0.39083,-0.42686 -15.44881,-3.96215 -33.46217,-7.85621 -44.90325,-9.70701 -116.80832,-10.5764 -143.72304,-1.73772 -70.205267,23.05509 -70.187769,88.51817 0.0488,182.40404 17.00607,22.7322 63.7393,73.6524 67.59623,73.6524 0.78227,0 12.04775,-10.95807 25.03441,-24.35125 z"
       id="path193"
       transform="matrix(0.04392773,0,0,0.04333766,5.8620864,235.28603)" />
    <path
       style="fill:#ffffff;stroke:#ffffff;stroke-width:3.2978"
       d="m 467.50093,561.30255 c -20.14131,-13.05986 -28.92268,-28.18828 -30.20798,-52.04188 -1.27938,-23.74366 6.22411,-39.69946 26.25489,-55.82972 13.56822,-10.92613 37.65741,-15.27189 52.07025,-9.39363 5.2894,2.15728 6.28101,3.43744 2.76651,3.57155 -9.0548,0.34553 -22.55334,19.22164 -22.55334,31.53818 0,7.06172 3.07472,14.69035 8.53767,21.1827 7.18177,8.53505 10.87172,10.14644 23.23453,10.14644 11.27958,0 16.61386,-1.917 22.94137,-8.24451 4.53448,-4.53448 8.91906,-8.24451 9.74352,-8.24451 3.94964,0 0.66251,26.22738 -4.75319,37.92474 -16.44034,35.50947 -57.47148,49.2079 -88.03423,29.39064 z"
       id="path195"
       transform="matrix(0.04392773,0,0,0.04333766,5.8620864,235.28603)" />
    <path
       style="fill:#ffffff;stroke:#ffffff;stroke-width:3.2978"
       d="m 109.98819,1170.037 v -16.489 h 13.19121 13.19122 v -47.8182 -47.8181 H 123.1794 109.98819 v -14.8402 -14.8401 h 47.81816 47.81815 v 14.8401 14.8402 h -13.19121 -13.19122 v 47.8181 47.8182 h 13.19122 13.19121 v 16.489 16.489 h -47.81815 -47.81816 z"
       id="path198"
       transform="matrix(0.04392773,0,0,0.04333766,5.8620864,235.28603)" />
    <path
       style="fill:#ffffff;stroke:#ffffff;stroke-width:3.2978"
       d="m 288.0861,1180.7748 c -19.77696,-6.9782 -50.00024,-37.3418 -55.38365,-55.6408 -5.63837,-19.1656 -4.99443,-27.0094 3.76084,-45.8106 25.71563,-55.2221 106.59516,-71.4898 158.75216,-31.9306 46.80005,35.4962 40.0665,100.1152 -13.22496,126.9145 -23.94653,12.0422 -69.26034,15.1631 -93.90439,6.4675 z m 72.30077,-33.0031 c 17.53733,-8.9425 24.99558,-21.4741 24.80516,-41.6786 -0.20878,-22.1529 -9.43872,-35.7419 -29.47378,-43.3933 -16.80414,-6.4176 -43.70986,-5.4956 -59.28103,2.0313 -31.30849,15.1342 -32.49847,61.0294 -2.10877,81.3311 14.36383,9.5956 48.84288,10.4879 66.05842,1.7095 z"
       id="path200"
       transform="matrix(0.04392773,0,0,0.04333766,5.8620864,235.28603)" />
    <path
       style="fill:#ffffff;stroke:#ffffff;stroke-width:3.2978"
       d="m 456.25762,1107.3787 v -79.1473 l 55.23821,0.018 c 30.38102,0.01 60.8173,1.5678 67.63617,3.4615 22.05579,6.1251 23.72862,12.0065 24.99547,87.881 l 1.11757,66.9337 h -21.52068 -21.52068 l -1.03261,-59.6326 c -1.22488,-70.7353 -0.26046,-68.9817 -37.93878,-68.9817 h -24.10322 v 64.3071 64.3072 h -21.43573 -21.43572 z"
       id="path202"
       transform="matrix(0.04392773,0,0,0.04333766,5.8620864,235.28603)" />
    <path
       style="fill:#ffffff;stroke:#ffffff;stroke-width:3.2978"
       d="m 634.33904,1170.037 v -16.489 h 13.19121 13.19122 v -47.8182 -47.8181 h -13.19122 -13.19121 v -14.8402 -14.8401 h 47.81816 47.81815 v 14.8401 14.8402 h -13.19121 -13.19122 v 47.8181 47.8182 h 13.19122 13.19121 v 16.489 16.489 H 682.1572 634.33904 Z"
       id="path204"
       transform="matrix(0.04392773,0,0,0.04333766,5.8620864,235.28603)" />
    <path
       style="fill:#ffffff;stroke:#ffffff;stroke-width:3.2978"
       d="m 792.9962,1182.96 c -17.77479,-3.4909 -25.70658,-10.3067 -30.00591,-25.7841 -4.34158,-15.6296 -4.24055,-87.6254 0.14512,-103.4177 6.04573,-21.7699 12.52475,-23.7238 82.93531,-25.0112 l 61.98606,-1.1334 v 14.8998 14.8997 l -46.06091,1.0738 c -59.79954,1.3939 -57.86225,-0.3487 -56.90112,51.1847 0.49582,26.5843 1.99874,39.3461 4.84664,41.1544 2.27038,1.4415 25.27514,2.6437 51.12168,2.6715 l 46.99371,0.051 v 16.489 16.489 l -50.29152,-0.3613 c -27.66033,-0.1987 -56.80641,-1.6408 -64.76906,-3.2047 z"
       id="path206"
       transform="matrix(0.04392773,0,0,0.04333766,5.8620864,235.28603)" />
    <path
       style="fill:#ffffff;stroke:#ffffff;stroke-width:3.2978"
       d="m 483.97091,966.3178 c -42.5364,-15.14431 -78.75545,-61.12398 -109.82271,-139.41872 -8.96009,-22.58094 -17.33624,-45.2258 -18.61367,-50.32191 -1.29608,-5.17053 -4.04966,-8.60292 -6.23026,-7.76614 -2.14922,0.82473 -16.43524,4.23954 -31.74672,7.58846 -21.28234,4.65486 -41.81972,6.0956 -87.19951,6.11724 -55.06278,0.0262 -60.78564,-0.54564 -79.0451,-7.89893 -28.2391,-11.37223 -52.302475,-36.20837 -59.68432,-61.60103 -4.724126,-16.25042 -5.017366,-22.46452 -1.866933,-39.56253 5.337625,-28.96834 4.803573,-33.74554 -6.197708,-55.4397 -5.418401,-10.68491 -9.819046,-23.29901 -9.779211,-28.03133 0.199754,-23.73074 24.76055,-52.71561 50.124902,-59.15376 46.87184,-11.89734 89.29279,43.93736 66.02535,86.90295 -10.33274,19.08043 -37.13388,34.54936 -59.85946,34.54936 -7.20638,0 -13.94362,1.36095 -14.97165,3.02432 -3.8204,6.18155 -5.86746,33.23256 -3.63925,48.09129 2.70616,18.046 18.81924,37.98364 39.03044,48.29463 31.00725,15.81872 122.80648,14.08207 191.30505,-3.6191 127.77944,-33.02031 274.6794,-108.17852 389.82592,-199.44604 l 35.8961,-28.45198 6.78458,6.93056 6.78457,6.93056 -11.54232,9.96729 c -24.44207,21.10679 -77.17544,59.88415 -112.8279,82.96771 -83.88413,54.31167 -154.24634,89.35319 -246.63274,122.8271 -19.04482,6.90042 -35.09819,12.86325 -35.67415,13.25073 -2.85006,1.9174 21.4153,66.48318 36.41108,96.88332 13.62448,27.62027 21.67511,39.18873 40.29804,57.9071 29.77581,29.92833 47.969,36.24643 79.33488,27.55124 20.77959,-5.76047 55.7474,-43.58163 74.73694,-80.83544 19.72437,-38.69531 40.05583,-101.37357 51.28791,-158.11133 8.35766,-42.21792 9.41316,-45.06978 18.40109,-49.71762 5.2442,-2.71187 10.32038,-4.14517 11.28044,-3.18512 2.79073,2.79074 -11.18787,72.88147 -23.47987,117.73133 -26.28574,95.90901 -66.37586,162.00855 -113.4908,187.12053 -25.3212,13.49607 -43.40398,15.69323 -65.22301,7.92496 z"
       id="path208"
       transform="matrix(0.04392773,0,0,0.04333766,5.8620864,235.28603)" />
    <path
       style="fill:#ffffff;stroke:#ffffff;stroke-width:3.2978"
       d="M 485.54963,967.80451 C 436.34142,949.44194 397.95181,896.92702 363.9827,801.5074 c -12.27195,-34.47202 -10.57838,-33.53918 -45.20377,-24.89893 -17.14553,4.27841 -37.70505,5.64492 -86.82865,5.77115 l -64.36383,0.1654 -22.02993,-10.83905 C 117.82528,758.06179 98.607811,737.02434 91.481123,712.5094 87.06335,697.3128 86.877987,690.66134 90.232415,667.70158 94.169753,640.75203 94.16682,640.72945 83.944568,619.30372 78.319705,607.51407 73.716374,593.71327 73.714943,588.63527 c -0.005,-17.74977 18.245391,-43.96058 37.669757,-54.10048 11.62118,-6.06649 37.48331,-6.57879 48.4008,-0.95877 26.32811,13.55297 42.557,44.6858 35.99569,69.05265 -4.19358,15.57374 -19.6056,34.46477 -34.34213,42.0943 -5.62558,2.91253 -18.37843,6.17575 -28.33966,7.2516 l -18.11134,1.9561 -2.86641,15.71775 c -7.93875,43.53161 15.4143,78.88777 58.16134,88.05537 28.82712,6.18231 104.44937,3.69463 146.25399,-4.81119 128.13789,-26.07172 294.89788,-108.9323 419.079,-208.23419 16.70579,-13.35885 31.3823,-24.28881 32.6145,-24.28881 2.61469,0 10.95352,10.4437 11.10707,13.91069 0.13949,3.14976 -53.82587,46.18398 -88.93584,70.92116 -73.83586,52.02198 -180.03402,107.83343 -265.47323,139.51697 -25.39309,9.41656 -47.21604,17.74539 -48.49544,18.50851 -3.87809,2.31318 20.03351,66.74257 37.18519,100.19489 29.5196,57.57442 67.19556,89.06921 101.0062,84.43493 61.69027,-8.4556 114.45431,-102.16957 144.69468,-256.99149 5.12785,-26.25322 6.59531,-29.50073 15.38426,-34.04566 5.34359,-2.76329 10.51739,-4.22243 11.4973,-3.24253 4.67724,4.67724 -21.36618,119.32204 -37.21154,163.80749 -31.67896,88.93803 -84.06801,148.22058 -135.46478,153.2896 -9.34453,0.92161 -21.02608,-0.27668 -27.97472,-2.86965 z"
       id="path210"
       transform="matrix(0.04392773,0,0,0.04333766,5.8620864,235.28603)" />
  </g>
</svg>
